<svg id="Group_186" data-name="Group 186" xmlns="http://www.w3.org/2000/svg" width="50" height="50" viewBox="0 0 50 50">
  <g id="Group_181" data-name="Group 181">
    <g id="Group_180" data-name="Group 180" transform="translate(2.387 4.58)">
      <g id="Group_179" data-name="Group 179" transform="translate(0)">
        <g id="Group_178" data-name="Group 178">
          <path id="Path_209" data-name="Path 209" d="M93.961,450.4l-.25-.25a.932.932,0,0,0-.122.009C93.716,450.232,93.84,450.313,93.961,450.4Z" transform="translate(-86.852 -410.77)" fill="#fff"/>
          <path id="Path_210" data-name="Path 210" d="M.772,25.85c.463,0,.772-.472.772-1.182V1.182C1.544.473,1.235,0,.772,0S0,.473,0,1.182V24.669C0,25.378.309,25.85.772,25.85Z" transform="translate(9.287 38.359) rotate(-90)" fill="#fff"/>
          <path id="Path_224" data-name="Path 224" d="M198.355,385.8c.463,0,.772-.127.772-.317v-6.3c0-.19-.309-.317-.772-.317s-.772.127-.772.317v6.3C197.583,385.669,197.892,385.8,198.355,385.8Z" transform="translate(-156.523 -355.471)" fill="#fff"/>
          <path id="Path_227" data-name="Path 227" d="M198.355,385.8c.463,0,.772-.127.772-.317v-6.3c0-.19-.309-.317-.772-.317s-.772.127-.772.317v6.3C197.583,385.669,197.892,385.8,198.355,385.8Z" transform="translate(-160.321 -355.471)" fill="#fff"/>
          <path id="Path_225" data-name="Path 225" d="M198.355,385.8c.463,0,.772-.127.772-.317v-6.3c0-.19-.309-.317-.772-.317s-.772.127-.772.317v6.3C197.583,385.669,197.892,385.8,198.355,385.8Z" transform="translate(-195.131 -355.471)" fill="#fff"/>
          <path id="Path_226" data-name="Path 226" d="M198.355,385.8c.463,0,.772-.127.772-.317v-6.3c0-.19-.309-.317-.772-.317s-.772.127-.772.317v6.3C197.583,385.669,197.892,385.8,198.355,385.8Z" transform="translate(-191.966 -355.471)" fill="#fff"/>
          <path id="Path_222" data-name="Path 222" d="M.661,14.379c.426-.021.732-.478.763-1.141L2,1.071C2.029.408,1.765-.02,1.339,0S.607.479.576,1.142L0,13.308C-.029,13.972.235,14.4.661,14.379Z" transform="translate(21.647 29.874) rotate(60)" fill="#fff"/>
          <path id="Path_223" data-name="Path 223" d="M1.339,14.379c.426.021.69-.407.659-1.071L1.424,1.142C1.393.479,1.088.022.661,0S-.029.408,0,1.071L.576,13.237C.607,13.9.912,14.357,1.339,14.379Z" transform="translate(34.672 37.063) rotate(120)" fill="#fff"/>
          <path id="Path_214" data-name="Path 214" d="M94.48,83.52c.046-.051.093-.1.14-.148.079-.079.162-.154.247-.228a4.969,4.969,0,0,1,.73-.945,4.639,4.639,0,0,1,.427-.375l3.088-3.867c0-.463-.772-.772-.772-.772H88.048V70.236h.772a.772.772,0,1,0,0-1.544H84.959V63.009h.772a.772.772,0,1,0,0-1.544h-.807c-.317-3.56-2.806-7.735-6.142-8.67V50.161a.729.729,0,0,0-.772-.772h-.772V47.845a.772.772,0,0,0-1.544,0v1.544h-.772a.729.729,0,0,0-.772.772v2.633c-3.336.935-5.825,5.111-6.142,8.67H67.2a.772.772,0,0,0,0,1.544h.772v5.683H64.112a.772.772,0,0,0,0,1.544h.772v6.949h-9.85a.812.812,0,0,0-.87.772l3.5,4.976a5.911,5.911,0,0,1,1.386.959c.06.055.117.111.173.169L55.806,78.73H63.34v9.521c.036.034.071.07.105.105a5.263,5.263,0,0,1,1.439.684V78.73h3.088s1.633,0,1.544,0H88.048V89.424a4.577,4.577,0,0,1,1.334-1.32c.067-.118.136-.234.211-.346V78.73h7.976ZM67.973,77.186H66.428V70.236h1.544Zm7.721-26.252h1.544v1.544H75.694Zm.772,3.088c3.6,0,6.526,3.951,6.906,7.443H69.56C69.94,57.973,72.867,54.022,76.466,54.022Zm-5.4,23.163H69.517V70.236h1.544Zm3.089,0H72.605V70.236H74.15Zm3.089,0H75.694V70.236h1.544Zm3.088,0H78.782V70.236h1.544Zm3.088,0H81.871V70.236h1.544Zm0-8.493h-13.9V63.009h13.9ZM86.5,77.186H84.959V70.236H86.5Z" transform="translate(-54.164 -47.073)" fill="#fff"/>
          <path id="Path_217" data-name="Path 217" d="M245.776,217.054c.463,0,.772-.243.772-.486v-1.457c0-.291-.309-.486-.772-.486s-.772.194-.772.486v1.457C245,216.86,245.313,217.054,245.776,217.054Z" transform="translate(-223.474 -196.825)" fill="#fff"/>
          <path id="Path_218" data-name="Path 218" d="M277.391,217.054c.463,0,.772-.243.772-.486v-1.457c0-.291-.309-.486-.772-.486s-.772.194-.772.486v1.457C276.619,216.86,276.928,217.054,277.391,217.054Z" transform="translate(-252.001 -196.825)" fill="#fff"/>
          <path id="Path_219" data-name="Path 219" d="M214.163,217.054c.463,0,.772-.243.772-.486v-1.457c0-.291-.309-.486-.772-.486s-.772.194-.772.486v1.457C213.391,216.86,213.7,217.054,214.163,217.054Z" transform="translate(-194.95 -196.825)" fill="#fff"/>
        </g>
      </g>
      <g id="Group_184" data-name="Group 184" transform="translate(36.453 18.647)">
        <g id="Group_183" data-name="Group 183" transform="translate(0 0)">
          <g id="Group_182" data-name="Group 182">
            <path id="Path_228" data-name="Path 228" d="M783.247,34.35c.843-.006,1.686.009,2.529.037q.374.013.747.029c2.8.149,3.711-.109,3.711-.272a.257.257,0,0,0-.272-.272h-.284a2.981,2.981,0,0,0-2.164-2.608v-.927a.257.257,0,0,0-.272-.272h-.272v-.544a.272.272,0,0,0-.544,0v.544h-.272a.257.257,0,0,0-.272.272v.927a2.981,2.981,0,0,0-2.163,2.608h-.284a.257.257,0,0,0-.272.272A.268.268,0,0,0,783.247,34.35Zm3.179-3.741h.544v.544h-.544ZM786.7,31.7a2.436,2.436,0,0,1,2.433,2.176h-4.865A2.436,2.436,0,0,1,786.7,31.7Z" transform="translate(-783.163 -29.249)" fill="#fff" stroke="#fff" stroke-width="1"/>
          </g>
        </g>
      </g>
      <g id="Group_185" data-name="Group 185" transform="translate(1.01 18.647)">
        <g id="Group_183-2" data-name="Group 183" transform="translate(0 0)">
          <g id="Group_182-2" data-name="Group 182">
            <path id="Path_228-2" data-name="Path 228" d="M790.234,34.144a.257.257,0,0,0-.272-.272h-.284a2.981,2.981,0,0,0-2.164-2.608v-.927a.257.257,0,0,0-.272-.272h-.272v-.544a.272.272,0,0,0-.544,0v.544h-.272a.257.257,0,0,0-.272.272v.927a2.981,2.981,0,0,0-2.163,2.608h-.284a.257.257,0,0,0-.272.272A66.74,66.74,0,0,0,790.234,34.144Zm-3.808-3.535h.544v.544h-.544ZM786.7,31.7a2.436,2.436,0,0,1,2.433,2.176h-4.865A2.436,2.436,0,0,1,786.7,31.7Z" transform="translate(-783.163 -29.249)" fill="#fff" stroke="#fff" stroke-width="1"/>
          </g>
        </g>
      </g>
    </g>
    <path id="Path_220" data-name="Path 220" d="M25.2,50.2A25,25,0,0,1,7.518,7.518,25,25,0,1,1,42.874,42.874,24.836,24.836,0,0,1,25.2,50.2Zm0-48.178A23.178,23.178,0,1,0,48.374,25.2,23.2,23.2,0,0,0,25.2,2.019Z" transform="translate(-0.196 -0.196)" fill="#fff"/>
  </g>
</svg>
