<svg xmlns="http://www.w3.org/2000/svg" width="22.787" height="27.259" viewBox="0 0 22.787 27.259">
  <path id="nurse" d="M22.727,23.8a1.065,1.065,0,0,0-2.085.433.761.761,0,0,1-.157.637.7.7,0,0,1-.543.264H12.871l2.875-7.353a9.407,9.407,0,0,1,2.784,2.194,1.065,1.065,0,1,0,1.609-1.395,11.54,11.54,0,0,0-4.8-3.3A6.122,6.122,0,0,0,17.159,8.53l.566-6.123a1.065,1.065,0,0,0-.535-1.024,12.846,12.846,0,0,0-11.593,0,1.065,1.065,0,0,0-.535,1.024L5.629,8.53a6.122,6.122,0,0,0,1.829,6.752,11.588,11.588,0,0,0-7.4,8.537A2.853,2.853,0,0,0,2.847,27.26h17.1a2.822,2.822,0,0,0,2.2-1.05,2.884,2.884,0,0,0,.59-2.415Zm-11.333-.737L9.034,17.022a9.341,9.341,0,0,1,2.361-.3,9.469,9.469,0,0,1,2.362.3ZM7.4,10.6a3.971,3.971,0,0,1,.3-1.513,1.065,1.065,0,0,0,.075-.5l-.521-5.64a11.423,11.423,0,0,1,4.143-.811,11.418,11.418,0,0,1,4.143.811l-.521,5.64a1.065,1.065,0,0,0,.075.5A3.994,3.994,0,1,1,7.4,10.6ZM2.3,24.868a.727.727,0,0,1-.148-.616,9.486,9.486,0,0,1,4.9-6.463L9.918,25.13H2.847a.7.7,0,0,1-.552-.263ZM14,6.39a1.065,1.065,0,0,1-1.065,1.065h-.532v.532a1.065,1.065,0,1,1-2.13,0V7.455H9.744a1.065,1.065,0,0,1,0-2.13h.532V4.793a1.065,1.065,0,1,1,2.13,0v.532h.532A1.065,1.065,0,0,1,14,6.39Zm0,0" transform="translate(-0.001 -0.001)" fill="#fff"/>
</svg>
