<svg xmlns="http://www.w3.org/2000/svg" width="56.07" height="56.07" viewBox="0 0 56.07 56.07">
  <path id="Path_42" data-name="Path 42" d="M53.88,38.548a2.19,2.19,0,0,0,2.19-2.19V25.765a8.733,8.733,0,0,0-3.183-6.756l-9.209-7.6a2.2,2.2,0,0,0-.325-.22A17.96,17.96,0,0,0,9.562,12.652c-1.049.076-2.36.227-3.922.452A6.573,6.573,0,0,0,0,19.609V24.22a6.568,6.568,0,0,0,5.611,6.5q1.769.259,3.15.38V53.88a2.19,2.19,0,1,0,4.38,0V49.39h3.285v1.752a2.19,2.19,0,0,0,4.38,0V43.476a2.19,2.19,0,1,0-4.38,0v1.533H13.141V31.084q1.37-.126,3.126-.378A6.6,6.6,0,0,0,21.9,24.2V19.609a6.573,6.573,0,0,0-5.64-6.5q-1.148-.165-2.113-.277a13.578,13.578,0,0,1,25.12-.055L33.1,17.838l-1.444,1.192a8.731,8.731,0,0,0-3.182,6.76l0,21.517a8.761,8.761,0,0,0,8.761,8.762H47.309a8.771,8.771,0,0,0,8.761-8.761,2.19,2.19,0,1,0-4.38,0,4.385,4.385,0,0,1-4.38,4.38H37.235a4.381,4.381,0,0,1-4.38-4.381l0-21.519a4.366,4.366,0,0,1,1.591-3.381l1.439-1.189L40.3,17.6q0,.18,0,.361v6.023a2.19,2.19,0,0,0,4.38,0V17.96c0-.015,0-.03,0-.046L50.1,22.387a4.367,4.367,0,0,1,1.592,3.378V36.358A2.19,2.19,0,0,0,53.88,38.548ZM15.638,17.44a2.2,2.2,0,0,1,1.883,2.169V24.2a2.2,2.2,0,0,1-1.878,2.168,37.524,37.524,0,0,1-4.8.456,34.942,34.942,0,0,1-4.6-.44A2.2,2.2,0,0,1,4.38,24.22V19.609A2.2,2.2,0,0,1,6.264,17.44c1.02-.147,1.847-.249,2.517-.32-.013.278-.02.558-.02.84a2.19,2.19,0,0,0,4.38,0c0-.28.01-.559.026-.835C13.83,17.2,14.642,17.3,15.638,17.44Z" transform="translate(0)" fill="#fff"/>
</svg>
