<svg xmlns="http://www.w3.org/2000/svg" width="20.612" height="26" viewBox="0 0 20.612 26">
  <path id="medical-history" d="M9.338,19.5V16.961H6.8a1.016,1.016,0,0,1,0-2.031H9.338V12.391a1.016,1.016,0,1,1,2.031,0V14.93h2.539a1.016,1.016,0,0,1,0,2.031H11.37V19.5a1.016,1.016,0,0,1-2.031,0Zm9.242-2.59V6.6A2.034,2.034,0,0,0,16.549,4.57h-3.2v.508a3.047,3.047,0,1,1-6.094,0V4.57H4.063A2.034,2.034,0,0,0,2.032,6.6V21.938a2.034,2.034,0,0,0,2.031,2.031H16.549a2.034,2.034,0,0,0,2.031-2.031,1.016,1.016,0,0,1,2.031,0A4.067,4.067,0,0,1,16.549,26H4.063A4.067,4.067,0,0,1,0,21.938V6.6A4.067,4.067,0,0,1,4.063,2.539H7.256V1.016A1.016,1.016,0,0,1,8.272,0h4.062A1.016,1.016,0,0,1,13.35,1.016V2.539h3.2A4.067,4.067,0,0,1,20.612,6.6V16.91a1.016,1.016,0,0,1-2.031,0ZM11.319,2.031H9.287V5.078a1.016,1.016,0,0,0,2.031,0Zm0,0" transform="translate(0)" fill="#fff"/>
</svg>
