<svg id="phone-call" xmlns="http://www.w3.org/2000/svg" width="23.044" height="23.044" viewBox="0 0 23.044 23.044">
  <g id="Group_45" data-name="Group 45" transform="translate(0 0)">
    <g id="Group_44" data-name="Group 44" transform="translate(0 0)">
      <path id="Path_36" data-name="Path 36" d="M248.9,22.89h.045a8.171,8.171,0,0,1,8.187,8.228.9.9,0,0,0,.9.9h0a.9.9,0,0,0,.9-.9,9.971,9.971,0,0,0-9.987-10.037H248.9a.9.9,0,0,0,0,1.8Z" transform="translate(-236.838 -20.141)" fill="#fff"/>
      <path id="Path_37" data-name="Path 37" d="M23.042,18.569A3.409,3.409,0,0,0,22,16.226a8.372,8.372,0,0,0-3.315-2.2,3.71,3.71,0,0,0-3.809,1.081l-.005.005-1.218,1.209A18.124,18.124,0,0,1,9.813,13.35l-.118-.118A18.238,18.238,0,0,1,6.726,9.395L7.934,8.178l.005-.005A3.71,3.71,0,0,0,9.02,4.363a8.372,8.372,0,0,0-2.2-3.315A3.425,3.425,0,0,0,2.064.877L2.039.9,2,.934a7.3,7.3,0,0,0-2,5.35c.018,3.7,2.052,7.932,5.44,11.321l.008.008A21.967,21.967,0,0,0,7.6,19.483a.9.9,0,1,0,1.1-1.429,20.128,20.128,0,0,1-1.98-1.724l-.008-.008C3.65,13.264,1.817,9.508,1.8,6.274A5.561,5.561,0,0,1,3.26,2.223l.007-.006A1.619,1.619,0,0,1,5.522,2.3C7.853,4.715,7.684,5.856,6.654,6.912L4.986,8.593a.9.9,0,0,0-.183,1A18.188,18.188,0,0,0,8.421,14.5l.118.118a18.188,18.188,0,0,0,4.911,3.619.9.9,0,0,0,1-.183l1.681-1.668c1.056-1.03,2.2-1.2,4.614,1.132a1.619,1.619,0,0,1,.081,2.255l-.006.007a5.544,5.544,0,0,1-4.01,1.46H16.77a11.672,11.672,0,0,1-4.442-1.051.9.9,0,0,0-.713,1.653,13.279,13.279,0,0,0,5.146,1.2h.05a7.287,7.287,0,0,0,5.3-2l.033-.035.023-.026A3.409,3.409,0,0,0,23.042,18.569Z" transform="translate(0 -0.001)" fill="#fff"/>
      <path id="Path_38" data-name="Path 38" d="M295.66,113.314a4.947,4.947,0,0,0-2.338-1.345.9.9,0,1,0-.48,1.735,3.148,3.148,0,0,1,1.544.883,3.217,3.217,0,0,1,.874,1.516l.013.044a.9.9,0,1,0,1.726-.511l-.012-.041A4.954,4.954,0,0,0,295.66,113.314Z" transform="translate(-279.032 -106.898)" fill="#fff"/>
    </g>
  </g>
</svg>
