<svg xmlns="http://www.w3.org/2000/svg" width="12.061" height="10.017" viewBox="0 0 12.061 10.017">
  <path id="Path_54" data-name="Path 54" d="M11.383,4.063l.019,0H3.331L5.868,1.524a.666.666,0,0,0,0-.937L5.473.193a.66.66,0,0,0-.932,0L.192,4.541a.665.665,0,0,0,0,.935L4.541,9.825a.661.661,0,0,0,.932,0l.395-.395a.653.653,0,0,0,.192-.466.634.634,0,0,0-.192-.457L3.3,5.95h8.089a.683.683,0,0,0,.669-.677V4.715A.67.67,0,0,0,11.383,4.063Z" transform="translate(12.061 10.017) rotate(180)" fill="#fff"/>
</svg>
