<svg xmlns="http://www.w3.org/2000/svg" width="50" height="50" viewBox="0 0 50 50">
  <path id="Path_208" data-name="Path 208" d="M24-1A24.991,24.991,0,0,0-.773,27.341a19.406,19.406,0,0,0,.441,2.492l.053.105a24.75,24.75,0,0,0,.947,3.009V33l.083.167a24.38,24.38,0,0,0,3.9,6.667H4.584L5.918,41.25a24.643,24.643,0,0,0,13.917,7.408v.009l.164.018a25.469,25.469,0,0,0,3.517.309c.163,0,.326.006.486.006s.322,0,.486-.006A25.469,25.469,0,0,0,28,48.685l.164-.018v-.009A24.643,24.643,0,0,0,42.084,41.25l1.333-1.417h-.071a24.386,24.386,0,0,0,3.9-6.667L47.334,33v-.052A24.768,24.768,0,0,0,49,24,25.074,25.074,0,0,0,24-1ZM.865,27.028c-.011-.093-.022-.186-.031-.278a10.353,10.353,0,0,1,2.25-3.5,25.44,25.44,0,0,0,2.583-3.833,17.586,17.586,0,0,0,1.211,1.966L1.126,28.592Q.97,27.819.865,27.028Zm7.018-4.244c.093.125.187.252.284.382l.167.25a22.071,22.071,0,0,1,1.7,2.4L2.914,29.825a3.641,3.641,0,0,1-.64-.1ZM14,33.167V31.5a.833.833,0,1,0-1.667,0v1.667h-.583c-.333,0-1.167-.083-1.417-.667-.583-1.083.083-2.25,1.5-3.917a13.981,13.981,0,0,0,1.75-2.5c.417.583.917,1.417,1.75,2.5l.167.167.242.308c.027.064.059.128.091.192a7.111,7.111,0,0,1,1.132,1.7,1.821,1.821,0,0,1,.065,1.278c-.007.021-.013.042-.022.064s-.015.039-.023.058c-.021.051-.043.1-.068.153-.25.5-.417.5-.583.583a.885.885,0,0,0-.223.076c-.059.005-.124.008-.194.008H14Zm1.667,1.667v5h-5v-5h5Zm-6.821-5H6.4l4.058-2.283A10.8,10.8,0,0,0,8.846,29.833Zm-6.512,2.8V31.5H8.383a3.414,3.414,0,0,0,.368,1.75,2.225,2.225,0,0,0,.25.444v6.14H6.9A23.457,23.457,0,0,1,2.334,32.635ZM26.5,47.167a25.058,25.058,0,0,1-5,0V46.5a2.5,2.5,0,1,1,5,0Zm1.667-.209V46.5a4.167,4.167,0,1,0-8.333,0v.458A23.3,23.3,0,0,1,8.611,41.5H39.391A23.3,23.3,0,0,1,28.168,46.958ZM18.753,31.589a5.725,5.725,0,0,0-1.418-3.174V25.667H30.668v2.727c-1.082,1.432-2.023,3.06-1.083,4.94a2.8,2.8,0,0,0,1.083,1.181v5.319H17.334V34.461a2.833,2.833,0,0,0,1-1.211h0A3.085,3.085,0,0,0,18.753,31.589ZM30.053,24H24.834V22.333a.833.833,0,0,0-1.667,0V24H17.949L24,13.167ZM21.5,9a2.5,2.5,0,0,1,5,0,2.5,2.5,0,0,1-5,0ZM36.334,33.167h-.667V31.5A.833.833,0,1,0,34,31.5v1.667H32.168a1.671,1.671,0,0,1-.358-.032.8.8,0,0,0-.142-.051h-.017a1.094,1.094,0,0,1-.483-.583c-.583-1.083.167-2.167,1.417-3.75l.167-.167a18.337,18.337,0,0,0,1.667-2.5,13.783,13.783,0,0,0,1.393,2l.19.253c0,.083.083.167.167.25a10.19,10.19,0,0,1,1.465,2.084l.119.333a2.023,2.023,0,0,1,.185.9,1.853,1.853,0,0,1-.185.6C37.5,33.083,36.668,33.167,36.334,33.167Zm1,1.667v5h-5v-5h5Zm8.333-2.2a23.454,23.454,0,0,1-4.568,7.2H39v-6.2c.029-.043.057-.087.083-.132a1.064,1.064,0,0,0,.167-.247,3.147,3.147,0,0,0,.333-1.75h6.083Zm1.469-5.606q-.149,1.136-.405,2.237a3.1,3.1,0,0,1-1.9.568H43.168v-2.5a.833.833,0,0,0-1.667,0v2.5H39.084A16.328,16.328,0,0,0,37.5,27.5l-.083-.083c.083-1.25,1.167-2.583,2.25-4l.167-.25a25.984,25.984,0,0,0,2.5-3.75,20.247,20.247,0,0,0,2.583,3.833,10.353,10.353,0,0,1,2.25,3.5C47.158,26.843,47.148,26.936,47.137,27.028Zm-.969-4.862a16.267,16.267,0,0,1-2.833-4.5c-.167-.417-.417-.917-1-.917s-.833.5-1,.917a25.159,25.159,0,0,1-2.833,4.5l-.167.25a16.315,16.315,0,0,0-2.207,3.391,7.48,7.48,0,0,1-.793-1.557.981.981,0,0,0-.917-.833c-.583,0-.833.5-1,.833a14.169,14.169,0,0,1-1.083,1.978V24.833a.828.828,0,0,0-.242-.616l-6.4-11.4a4.177,4.177,0,0,0-.856-7.906V2.333a.833.833,0,0,0-1.667,0V4.914a4.176,4.176,0,0,0-.855,7.906L15.977,24.161a.808.808,0,0,0-.309.672v1.435a14,14,0,0,1-1.167-2.1c-.167-.333-.417-.833-1-.833a.982.982,0,0,0-.917.833,7.274,7.274,0,0,1-.742,1.476l0,0a16.889,16.889,0,0,0-2.171-3.3l-.167-.25a18.852,18.852,0,0,1-2.833-4.5c-.167-.417-.417-.917-1-.917-.667.083-.833.583-1.083,1a14.3,14.3,0,0,1-2.833,4.5c-.368.453-.736.916-1.078,1.388a23.332,23.332,0,0,1,46.656.088C46.96,23.14,46.559,22.648,46.168,22.167Z" transform="translate(0.999 1)" fill="#fff"/>
</svg>
