<svg xmlns="http://www.w3.org/2000/svg" width="59.725" height="54.126" viewBox="0 0 59.725 54.126">
  <path id="cardiology" d="M59.725,16.946c0,8.167-5.816,15.014-10.19,19.453a2.333,2.333,0,0,1-3.324-3.275C52.248,27,55.059,21.858,55.059,16.946c0-7.231-4.7-12.28-11.432-12.28-4.377,0-7.608,1.646-9.605,4.894a13.567,13.567,0,0,0-1.834,5.288,2.333,2.333,0,0,1-4.651-.01A13.567,13.567,0,0,0,25.7,9.56c-2-3.248-5.228-4.894-9.6-4.894-6.731,0-11.432,5.05-11.432,12.28,0,3.261,1.237,6.614,3.777,10.233h5.538l3.87-7.908a2.333,2.333,0,0,1,4.226.075l4.767,10.684,3.036-6a2.334,2.334,0,0,1,2.063-1.28h.019a2.332,2.332,0,0,1,2.064,1.247L35.7,27.179h5.241a2.333,2.333,0,0,1,0,4.666H34.3A2.333,2.333,0,0,1,32.231,30.6L32,30.168l-3.209,6.347a2.332,2.332,0,0,1-2.081,1.28h-.057a2.333,2.333,0,0,1-2.074-1.382L19.849,25.8l-2.317,4.734a2.333,2.333,0,0,1-2.1,1.307H2.333a2.333,2.333,0,0,1,0-4.666h.591A20.567,20.567,0,0,1,0,16.946,17.1,17.1,0,0,1,4.7,4.608,15.83,15.83,0,0,1,16.1,0c7.715,0,11.7,3.97,13.691,7.3l.073.124.073-.124C31.924,3.97,35.912,0,43.627,0A15.83,15.83,0,0,1,55.02,4.608a17.1,17.1,0,0,1,4.7,12.338ZM38.006,40.679l-.053.047c-2.965,2.6-5.8,5.091-8.09,7.529-2.29-2.439-5.125-4.928-8.09-7.529-1.579-1.385-3.212-2.818-4.8-4.273a2.333,2.333,0,0,0-3.158,3.435c1.623,1.492,3.277,2.943,4.876,4.346a82.632,82.632,0,0,1,9.35,9.022l.007.009.032.037c.042.05.085.1.131.143l.007.008a2.256,2.256,0,0,0,.172.153l.005,0,0,0c.051.041.1.08.159.117l.01.007c.051.034.1.067.158.1l.011.006c.052.029.1.055.159.079l.04.017c.044.019.088.036.133.052l.035.013c.05.017.1.031.152.045l.06.015c.041.01.083.019.126.026l.049.009c.049.008.1.014.148.019l.053,0c.053,0,.107.006.16.006h.014c.054,0,.107,0,.16-.006l.053,0c.05-.005.1-.01.148-.019l.051-.009c.041-.008.083-.016.124-.026l.06-.015c.051-.014.1-.028.151-.045l.037-.014c.044-.015.087-.033.13-.051l.042-.018c.053-.024.106-.05.158-.078L31,53.831c.053-.029.1-.061.155-.095l.012-.008c.054-.036.107-.075.158-.116l0,0,.005,0c.059-.048.116-.1.171-.153l.008-.008c.045-.045.089-.093.131-.143l.032-.037.008-.009a82.537,82.537,0,0,1,9.349-9.021l.054-.047a2.333,2.333,0,1,0-3.078-3.507Zm0,0" transform="translate(0 0)" fill="#fff"/>
</svg>
