<svg xmlns="http://www.w3.org/2000/svg" width="53.9" height="53.898" viewBox="0 0 53.9 53.898">
  <path id="Path_14" data-name="Path 14" d="M52.7,9.144c1.58-3.753,1.6-6.438.056-7.98s-4.229-1.538-8.007-.007a22.215,22.215,0,0,0-6.52,3.936l-.019.02L33.779,9.664l-5.3-1.012.716-.716a2.106,2.106,0,0,0-2.978-2.978L23.476,7.7l-3.839-.733.081-.081A2.106,2.106,0,0,0,16.74,3.9l-2.1,2.1L11.983,5.5A6.333,6.333,0,0,0,6.465,7.111l-5.8,5.472A2.106,2.106,0,0,0,3.55,15.647l1.085-1.023,15.78,7.833L11.27,31.666l-3.912-.175-.1,0A9.258,9.258,0,0,0,.581,34.35a2.106,2.106,0,0,0,.635,3.36L11.4,42.458,16.54,52.745a2.106,2.106,0,0,0,3.408.511l.143-.15a9.18,9.18,0,0,0,2.543-6.357V41.826l9.02-9.069,4.2,8.989a2.105,2.105,0,0,0,3.815-1.782L34.193,28.244a2.106,2.106,0,0,0-3.4-.593L19.036,39.472a2.105,2.105,0,0,0-.613,1.485v5.79q0,.163-.01.325l-3.575-7.154a2.107,2.107,0,0,0-.994-.967L6.9,35.713q.161-.012.323-.013l4.794.215a2.1,2.1,0,0,0,1.588-.62l11.827-11.91a2.1,2.1,0,0,0,.234-.268l.011-.015,0-.005a2.1,2.1,0,0,0,.372-1.537v0l0-.016a2.1,2.1,0,0,0-.856-1.384l-.01-.007h0a2.081,2.081,0,0,0-.318-.185L7.9,11.544l1.452-1.369a2.111,2.111,0,0,1,1.839-.536l22.618,4.319a2.106,2.106,0,0,0,2.178-.527l5.228-5.367a17.554,17.554,0,0,1,4.566-2.77,9.9,9.9,0,0,1,3.911-1.073,9.858,9.858,0,0,1-1.121,3.855,18.049,18.049,0,0,1-2.827,4.534l-.015.015-5.09,5.194a2.105,2.105,0,0,0-.739,2.028l4.368,22.87a2.112,2.112,0,0,1-.536,1.839l-5.472,5.8a2.105,2.105,0,1,0,3.064,2.889l5.472-5.8a6.334,6.334,0,0,0,1.609-5.518L47.9,39.271l2.1-2.1a2.106,2.106,0,0,0-2.978-2.978l-.081.081-.733-3.839,2.739-2.739a2.106,2.106,0,0,0-2.978-2.978l-.716.716-1.008-5.279,4.483-4.576A22.811,22.811,0,0,0,52.7,9.144Z" transform="translate(0 -0.011)" fill="#fff"/>
</svg>
