<svg xmlns="http://www.w3.org/2000/svg" width="27.522" height="24.778" viewBox="0 0 27.522 24.778">
  <path id="Path_15" data-name="Path 15" d="M26.447,41.644a1.075,1.075,0,0,0,1.075-1.075v-6.45a4.305,4.305,0,0,0-4.3-4.3H18.595V28.743a3.229,3.229,0,0,0-3.225-3.225H12.152a3.229,3.229,0,0,0-3.225,3.225v1.075H4.3a4.305,4.305,0,0,0-4.3,4.3V46a4.305,4.305,0,0,0,4.3,4.3H23.221a4.305,4.305,0,0,0,4.3-4.3,1.075,1.075,0,1,0-2.15,0,2.153,2.153,0,0,1-2.15,2.15H4.3A2.153,2.153,0,0,1,2.15,46V34.119a2.153,2.153,0,0,1,2.15-2.15H23.221a2.153,2.153,0,0,1,2.15,2.15v6.45A1.075,1.075,0,0,0,26.447,41.644Zm-10-11.826H11.077V28.743a1.076,1.076,0,0,1,1.075-1.075h3.217a1.076,1.076,0,0,1,1.075,1.075Z" transform="translate(0 -25.518)" fill="#fff"/>
</svg>
