<svg xmlns="http://www.w3.org/2000/svg" width="25.719" height="25.719" viewBox="0 0 25.719 25.719">
  <path id="ultrasound" d="M25.22,7.493a1,1,0,0,1-1.374-.361,14.754,14.754,0,0,0-1.758-2.421L22.076,4.7c-.073-.085-.168-.188-.2-.218l-.038-.038c-.029-.031-.133-.126-.218-.2l-.015-.013A14.608,14.608,0,0,0,19,2.378,1,1,0,0,1,19.984.629a16.6,16.6,0,0,1,2.958,2.1c.06.052.225.2.337.311s.259.276.311.337a16.769,16.769,0,0,1,1.991,2.743,1,1,0,0,1-.361,1.374Zm-4.849,8.051a1,1,0,0,1-.656,1c-.056.021-5.645,2.082-6.389,2.374a1,1,0,0,1-1.051-.2l-.352-.327-.033-.032L8.335,14.735a9.008,9.008,0,0,1-.646.858L3.5,20.536l-.006.008a1.513,1.513,0,0,0,.038,2.026,1.513,1.513,0,0,0,2.026.037l.008-.006,3.183-2.7a1,1,0,0,1,1.3,1.532l-3.179,2.7a3.518,3.518,0,0,1-3.854.5l-1.3,1.3A1,1,0,0,1,.294,24.5l1.257-1.258a3.518,3.518,0,0,1,.415-4.012l4.19-4.94a6.192,6.192,0,0,0,1-1.6c.347-.828,2.376-6.263,2.4-6.318a1,1,0,0,1,1-.652,11.762,11.762,0,0,1,6.609,2.791c.047.041.144.127.218.2s.161.171.2.218a11.76,11.76,0,0,1,2.791,6.608Zm-2.1-.611a9.692,9.692,0,0,0-2.188-4.662l-.013-.015c-.032-.037-.076-.086-.093-.1l-.032-.032c-.017-.017-.066-.061-.1-.093l-.015-.013a9.624,9.624,0,0,0-4.665-2.191c-.468,1.249-1.4,3.736-1.889,5l3.922,3.995c1.231-.462,3.794-1.41,5.074-1.882ZM20.5,6.073c-.045-.052-.166-.19-.265-.287s-.234-.22-.287-.265a13.855,13.855,0,0,0-1.606-1.238,1,1,0,1,0-1.108,1.676,11.813,11.813,0,0,1,1.379,1.064l.015.013c.065.056.145.129.168.153l.037.037c.025.024.1.1.153.169l.013.015a11.992,11.992,0,0,1,1.329,1.8,1,1,0,1,0,1.719-1.041A14.024,14.024,0,0,0,20.5,6.073Zm0,0" transform="translate(0 -0.499)" fill="#fff"/>
</svg>
