<?xml version="1.0" standalone="no"?>
<!DOCTYPE svg PUBLIC "-//W3C//DTD SVG 20010904//EN"
 "http://www.w3.org/TR/2001/REC-SVG-20010904/DTD/svg10.dtd">
<svg version="1.0" xmlns="http://www.w3.org/2000/svg"
 width="960.000000pt" height="720.000000pt" viewBox="0 0 960.000000 720.000000"
 preserveAspectRatio="xMidYMid meet">
<metadata>
Created by potrace 1.15, written by Peter Selinger 2001-2017
</metadata>
<g transform="translate(0.000000,720.000000) scale(0.100000,-0.100000)"
fill="#000000" stroke="none">
<path d="M465 5843 c-11 -9 -55 -87 -55 -98 0 -3 10 -6 23 -5 40 4 44 1 41
-31 -3 -24 0 -30 10 -26 8 3 17 0 20 -8 3 -9 0 -12 -9 -8 -12 4 -13 0 -4 -26
6 -17 16 -31 22 -31 8 0 8 3 0 11 -12 12 8 62 30 76 19 12 47 14 47 3 0 -5 7
-6 17 -3 9 4 14 2 10 -3 -3 -6 -2 -16 4 -24 6 -11 9 -6 9 18 0 17 -4 32 -8 32
-10 0 -10 4 -13 72 -1 26 -7 49 -13 51 -21 7 -121 7 -131 0z"/>
<path d="M4548 5843 c-16 -2 -28 -9 -28 -14 0 -6 5 -7 10 -4 15 9 12 -12 -4
-27 -12 -11 -12 -16 2 -31 13 -15 14 -20 3 -26 -9 -6 -10 -10 -2 -12 15 -5 22
-77 9 -85 -6 -4 -5 -10 3 -15 10 -6 11 -11 3 -16 -6 -5 -11 -27 -10 -50 0 -22
-2 -39 -6 -36 -5 2 -8 -10 -8 -27 0 -38 -29 -132 -44 -142 -6 -4 -7 -8 -2 -8
5 0 4 -6 -2 -12 -5 -7 -12 -37 -15 -65 -5 -50 -24 -83 -50 -87 -6 -1 -18 -5
-25 -10 -7 -4 -34 -9 -60 -11 -100 -8 -146 -18 -165 -35 -27 -26 -15 -36 40
-34 26 1 56 -2 65 -7 10 -6 18 -5 20 2 2 5 15 11 29 13 13 1 30 5 36 9 6 4 14
3 18 -3 4 -6 12 -7 18 -3 21 13 37 12 37 -3 0 -25 -28 -84 -40 -84 -6 0 -8 5
-4 12 4 6 3 8 -3 5 -14 -9 -65 17 -55 28 4 4 -2 5 -13 3 -11 -3 -33 2 -49 10
-17 8 -31 10 -35 4 -3 -5 -33 -12 -65 -16 -59 -6 -90 -21 -81 -36 3 -4 -11
-20 -31 -35 l-35 -27 22 -21 c15 -14 24 -17 27 -9 2 7 8 12 13 12 6 0 6 -8 -1
-19 -15 -29 -12 -35 7 -15 11 11 18 13 21 5 2 -6 14 -8 28 -5 13 3 24 2 24 -3
0 -11 32 -14 40 -4 3 4 18 12 33 19 31 13 29 33 -3 25 -22 -6 -26 7 -8 25 9 9
14 7 25 -6 12 -16 14 -16 31 4 l17 20 23 -27 c19 -24 21 -31 11 -53 -7 -14
-16 -23 -20 -20 -5 3 -9 0 -9 -6 0 -6 -4 -8 -10 -5 -5 3 -10 2 -10 -4 0 -15
52 -61 62 -55 4 3 5 -1 2 -9 -3 -8 -1 -32 5 -53 16 -61 22 -134 11 -134 -6 0
-10 -9 -10 -20 0 -21 15 -27 25 -10 3 6 1 10 -4 10 -7 0 -7 7 1 20 7 11 21 20
30 20 10 0 17 3 17 8 -3 18 2 32 12 32 5 0 7 -4 4 -10 -3 -5 -1 -10 5 -10 7 0
10 7 7 15 -4 8 -2 17 4 20 5 4 7 11 4 16 -4 5 -2 9 2 9 5 0 10 11 11 25 1 14
-3 25 -10 25 -6 0 -8 3 -5 6 4 4 13 1 21 -5 10 -8 16 -9 21 -1 3 5 2 10 -3 10
-5 0 -8 15 -7 33 2 17 4 32 5 32 1 0 4 13 6 29 3 17 10 37 15 45 8 12 9 11 4
-6 -4 -13 -2 -23 3 -23 10 0 22 47 22 89 0 14 5 33 11 41 8 11 9 6 4 -20 l-6
-35 21 43 c12 23 24 40 29 38 4 -3 8 1 8 9 0 17 -24 20 -29 4 -2 -7 -9 -5 -17
5 -12 14 -11 16 7 16 16 0 22 10 32 53 20 94 21 97 9 97 -7 0 -10 3 -7 6 4 3
16 1 27 -6 25 -13 28 -2 4 16 -15 11 -15 13 -2 9 10 -4 22 3 33 19 9 15 12 26
6 26 -5 0 -10 -5 -10 -11 0 -5 -4 -8 -10 -4 -5 3 4 18 20 34 24 22 27 30 17
41 -10 10 -8 12 8 6 19 -6 19 -5 2 8 -13 10 -14 15 -5 18 15 5 18 38 25 266
l4 182 -68 -1 c-37 -1 -80 -4 -95 -6z"/>
<path d="M6380 5839 c-25 -3 -39 -7 -31 -7 8 -1 12 -5 9 -8 -4 -3 -16 0 -28 6
-17 9 -26 8 -46 -5 -14 -9 -22 -20 -19 -24 2 -5 -3 -15 -12 -22 -15 -12 -16
-12 -10 4 4 11 3 16 -3 12 -20 -12 -10 14 11 28 18 13 8 15 -102 16 -88 1
-125 -3 -131 -12 -6 -9 -8 -9 -8 1 0 9 -27 12 -100 12 -96 0 -99 -1 -82 -18
11 -11 20 -14 24 -8 13 19 20 -2 8 -24 -6 -12 -14 -19 -17 -16 -4 3 -13 -4
-21 -16 -15 -20 -16 -20 -28 -3 -8 10 -17 16 -21 12 -3 -4 2 -15 11 -26 13
-15 14 -21 5 -27 -7 -4 -15 -2 -17 4 -2 7 -8 10 -13 6 -5 -3 -9 4 -9 15 0 12
-4 21 -8 21 -9 0 -8 -41 3 -82 4 -17 3 -28 -3 -28 -6 0 -13 18 -17 40 -4 22
-10 40 -14 40 -3 0 -5 -18 -3 -40 3 -27 0 -40 -8 -40 -7 0 -10 -7 -6 -15 3 -8
1 -15 -3 -15 -5 0 -12 7 -15 16 -8 22 -8 26 4 19 6 -3 10 3 10 13 0 11 -8 23
-17 27 -17 6 -17 7 -1 19 10 7 14 17 9 22 -12 13 -21 94 -10 94 5 0 9 -5 9
-11 0 -5 5 -7 11 -3 19 12 -13 24 -61 23 -25 -1 -37 -3 -27 -6 17 -5 24 -23 8
-23 -5 0 -7 -10 -3 -22 3 -14 2 -19 -6 -14 -7 4 -12 2 -12 -3 0 -6 4 -11 9
-11 4 0 8 -18 8 -41 0 -26 -3 -36 -8 -27 -6 9 -9 6 -9 -10 0 -13 4 -20 10 -17
6 3 10 0 10 -8 0 -10 -7 -13 -20 -10 -11 3 -17 10 -13 17 5 8 3 8 -8 0 -8 -7
-30 -11 -49 -11 -20 1 -42 -3 -49 -7 -8 -5 -16 -3 -21 5 -7 10 -12 10 -22 1
-10 -8 -18 -8 -25 -1 -8 8 -13 8 -17 0 -4 -6 -15 -7 -30 -1 -15 5 -27 5 -35
-3 -8 -8 -11 -8 -11 0 0 6 4 13 10 15 6 2 5 17 -3 40 -10 29 -16 34 -29 27
-14 -8 -16 -2 -16 41 -1 27 3 52 8 55 6 3 8 -12 6 -35 -2 -25 1 -40 8 -40 6 0
11 19 11 45 0 42 -2 45 -27 45 -27 0 -27 -1 -23 -59 1 -32 6 -73 10 -91 6 -28
8 -29 19 -14 11 15 12 13 8 -15 -4 -30 -6 -31 -22 -16 -12 11 -20 13 -25 6 -3
-6 -2 -11 3 -11 5 0 12 -9 15 -21 3 -12 10 -18 16 -14 6 3 11 1 11 -5 0 -8 18
-11 60 -7 33 2 63 0 66 -5 3 -5 12 -7 19 -4 7 2 18 -1 24 -7 8 -8 11 -6 11 6
0 16 2 16 22 -3 16 -15 24 -17 30 -8 6 10 8 9 8 -3 0 -9 11 -22 25 -29 14 -7
25 -19 25 -27 0 -7 5 -13 10 -13 6 0 10 -7 10 -16 0 -11 -8 -6 -27 15 -15 17
-34 31 -43 31 -13 0 -13 -2 0 -11 11 -8 12 -12 3 -16 -7 -2 -13 -12 -13 -20 0
-12 3 -13 14 -4 27 22 27 -7 1 -33 -14 -14 -25 -20 -24 -13 4 33 -2 78 -10 72
-6 -3 -7 -28 -4 -56 6 -49 5 -51 -15 -44 -13 4 -22 2 -22 -4 0 -6 7 -11 16
-11 11 0 15 -6 11 -19 -3 -14 -1 -18 9 -14 8 3 14 9 14 14 0 4 8 6 18 2 14 -5
13 -3 -3 10 -26 20 -12 33 23 21 33 -11 41 -39 13 -47 -10 -2 -27 -19 -36 -36
-18 -36 -11 -62 11 -34 13 17 13 17 14 -4 0 -13 -4 -23 -10 -23 -5 0 -10 -8
-11 -17 0 -11 -3 -13 -6 -5 -8 21 -39 13 -51 -13 -17 -37 -15 -44 9 -38 16 4
20 2 17 -8 -3 -8 -12 -13 -22 -11 -9 2 -16 -2 -16 -8 0 -5 7 -10 15 -10 8 0
15 -4 15 -10 0 -5 -9 -10 -20 -10 -11 0 -20 6 -20 13 0 8 -4 7 -10 -3 -8 -12
-10 -11 -10 8 0 12 -6 22 -14 22 -8 0 -13 -11 -12 -30 1 -23 6 -30 22 -30 28
0 32 -6 26 -38 l-6 -27 -7 25 c-7 23 -8 23 -6 -5 2 -27 5 -30 32 -28 19 1 22
0 10 -4 -11 -3 -23 -10 -27 -16 -5 -8 -9 -5 -14 6 -3 9 -12 17 -20 17 -19 0
-18 -14 1 -30 24 -20 15 -54 -15 -58 -35 -5 -46 -18 -31 -36 11 -13 7 -17 -21
-29 -29 -13 -31 -15 -14 -23 13 -5 21 -3 24 4 2 7 8 9 13 6 6 -3 16 -1 22 5
15 12 57 11 57 -1 0 -5 -12 -5 -26 -2 -24 6 -25 5 -15 -14 16 -30 14 -34 -10
-21 -30 15 -62 -19 -53 -57 5 -20 3 -25 -7 -22 -8 3 -13 13 -13 22 1 9 -4 16
-11 16 -9 0 -11 -9 -6 -32 4 -18 4 -48 0 -65 -3 -18 -3 -33 2 -33 5 0 9 11 9
25 0 14 5 25 10 25 6 0 10 7 10 16 0 8 5 12 10 9 15 -9 13 -66 -2 -62 -13 2
-14 -7 -2 -55 6 -27 5 -28 -32 -28 -24 0 -34 -3 -26 -9 7 -4 26 -7 42 -6 16 1
31 -4 34 -11 3 -7 -2 -10 -15 -7 -23 6 -25 -10 -4 -27 14 -12 13 -15 -5 -35
-11 -12 -20 -29 -20 -39 0 -13 -5 -17 -20 -13 -10 3 -22 0 -25 -7 -3 -6 -3 -1
-1 11 4 23 -39 81 -51 69 -4 -4 -2 -11 4 -17 12 -12 5 -99 -9 -114 -6 -6 -12
-5 -18 5 -5 8 -11 12 -14 9 -12 -12 15 -32 43 -31 17 0 31 -4 31 -9 0 -5 -9
-9 -19 -9 -11 0 -26 -7 -34 -15 -11 -10 -17 -11 -19 -3 -8 23 -28 -4 -23 -30
l6 -27 -13 29 c-12 26 -15 27 -27 12 -7 -9 -18 -16 -24 -16 -7 0 -7 4 1 12 7
7 12 19 11 28 0 10 -2 11 -6 3 -9 -24 -25 -13 -20 12 3 17 0 24 -7 22 -7 -3
-10 -23 -8 -51 2 -36 0 -46 -12 -46 -9 0 -16 -8 -16 -18 0 -10 -4 -22 -9 -27
-5 -6 -12 -21 -16 -35 -7 -23 -7 -23 9 -7 20 19 32 21 41 7 3 -5 -3 -10 -14
-10 -23 0 -28 -15 -8 -24 9 -3 7 -9 -5 -19 -24 -19 -23 -30 2 -15 10 7 23 9
27 4 4 -4 0 -12 -10 -17 -20 -11 -22 -51 -5 -78 9 -15 8 -22 -4 -34 -9 -9 -18
-13 -22 -10 -3 4 -6 1 -6 -5 0 -16 33 -15 49 1 11 10 11 8 2 -10 -9 -18 -17
-21 -42 -16 -21 4 -34 1 -39 -7 -5 -8 -18 -14 -29 -15 -15 -1 -18 2 -12 14 5
9 6 22 4 29 -3 6 2 12 11 12 9 0 16 -4 16 -10 0 -5 5 -10 10 -10 6 0 10 8 8
18 -2 12 3 16 20 15 13 -2 22 3 22 11 0 9 -8 12 -25 8 -31 -5 -44 21 -21 43
18 19 21 35 6 35 -5 0 -10 -7 -10 -15 0 -8 -6 -15 -14 -15 -8 0 -13 -10 -13
-25 0 -15 5 -25 14 -25 20 0 8 -16 -17 -23 -19 -5 -21 -2 -15 23 3 16 2 31 -4
35 -7 4 -12 -5 -13 -22 -1 -15 -4 4 -8 42 -5 57 -7 41 -10 -90 l-4 -160 -6
140 c-3 77 -9 -414 -13 -1090 -4 -677 -5 -1237 -2 -1246 4 -10 41 -24 103 -38
53 -13 103 -28 110 -33 6 -6 12 -8 12 -5 0 7 132 -41 144 -53 6 -6 16 -10 24
-10 17 0 254 -119 262 -131 3 -4 18 -13 33 -18 38 -15 1787 -15 1787 -1 0 6
-5 10 -10 10 -32 0 -218 248 -285 380 -10 19 -26 46 -35 60 -22 32 -112 184
-153 258 -17 32 -44 80 -61 107 -17 28 -36 59 -43 70 -7 11 -30 50 -52 87 -58
94 -64 114 -43 134 15 16 15 18 -7 33 -12 9 -59 53 -103 98 -45 45 -85 80 -91
76 -6 -3 -7 -1 -3 6 9 14 -28 63 -39 53 -5 -4 -5 -2 -2 4 4 7 -5 25 -21 42
-15 16 -35 43 -44 58 -10 16 -22 28 -27 27 -6 -2 -8 4 -5 12 4 10 0 15 -11 15
-12 0 -15 6 -10 23 5 16 4 18 -3 8 -8 -11 -15 -4 -31 29 -23 49 -26 70 -10 70
6 0 9 -6 6 -14 -4 -10 0 -12 13 -9 11 3 21 12 23 22 3 12 7 8 18 -14 7 -16 16
-32 19 -35 3 -3 16 -27 30 -53 14 -27 31 -54 39 -60 12 -10 12 -9 0 13 -8 14
-20 33 -28 43 -8 9 -11 17 -7 17 4 0 2 9 -4 19 -11 21 -3 54 11 45 5 -3 6 2 2
11 -5 14 -8 14 -15 3 -7 -9 -8 -7 -5 9 4 17 1 20 -12 16 -9 -4 -13 -3 -9 2 4
4 0 14 -10 22 -15 11 -15 12 0 7 10 -3 18 1 21 13 4 14 5 13 6 -6 1 -16 5 -21
16 -18 8 4 17 1 21 -5 4 -7 3 -8 -4 -4 -7 4 -12 2 -12 -4 0 -8 9 -10 25 -6 16
4 25 2 25 -5 0 -8 4 -8 14 0 12 10 15 6 21 -19 4 -16 10 -30 15 -30 4 0 3 16
-3 35 -6 19 -16 35 -24 35 -7 0 -13 4 -13 10 0 5 -13 23 -30 40 -16 17 -30 34
-30 39 0 4 -11 21 -25 37 -14 16 -25 35 -25 42 0 6 -4 12 -9 12 -13 0 -78 136
-105 220 -13 41 -34 123 -46 182 -12 59 -25 106 -29 104 -3 -2 -7 9 -8 25 -2
16 -4 43 -5 59 -2 17 -7 30 -12 30 -5 0 -6 -22 -4 -50 3 -27 1 -47 -4 -44 -4
3 -8 -15 -8 -40 0 -25 -4 -46 -9 -46 -6 0 -7 16 -4 35 4 26 2 35 -9 35 -10 0
-14 14 -13 59 1 33 -3 57 -7 55 -8 -5 -13 49 -8 71 6 24 -4 153 -13 161 -4 4
-7 14 -7 23 0 11 3 12 8 4 8 -13 6 104 -4 160 -5 31 -3 38 7 32 9 -6 11 -4 6
8 -4 11 -2 14 9 10 11 -4 12 -8 3 -19 -7 -8 -9 -17 -5 -21 13 -13 18 8 18 89
0 46 7 124 15 173 9 54 13 135 11 202 -2 72 0 109 7 105 5 -3 5 1 -2 9 -16 20
-16 118 1 199 16 81 29 129 42 157 8 17 14 37 14 45 0 8 5 19 12 26 7 7 8 12
4 12 -5 0 -3 7 4 15 7 8 10 15 6 15 -3 0 1 8 10 18 8 9 28 34 45 56 16 21 29
36 29 32 0 -3 9 3 20 14 11 11 20 25 20 31 0 6 7 9 15 5 10 -3 15 1 15 11 0 9
3 13 7 10 3 -4 13 2 21 14 8 11 20 18 28 15 8 -3 14 -1 14 4 0 6 6 10 13 10 7
0 23 9 34 19 11 11 40 25 64 32 24 7 46 16 49 21 8 10 63 14 77 5 6 -4 14 -3
18 3 3 5 20 8 38 6 18 -2 37 0 44 5 7 7 14 6 18 -2 5 -8 10 -8 14 0 5 7 15 6
34 -4 17 -8 27 -10 27 -3 0 6 13 8 30 6 23 -3 30 -1 26 9 -7 16 -5 16 30 -2
34 -18 54 -19 54 -4 0 5 5 7 10 4 6 -4 8 -10 5 -15 -3 -5 -1 -11 5 -15 5 -3
10 0 10 7 0 17 72 17 92 0 12 -10 14 -7 13 18 -1 16 2 27 7 24 5 -4 7 -12 5
-18 -3 -7 4 -18 14 -24 12 -8 19 -8 19 -2 0 6 11 3 25 -6 28 -18 79 -28 69
-13 -3 5 2 9 10 9 8 0 18 -4 21 -10 3 -5 20 -10 36 -10 20 0 28 -4 23 -12 -4
-7 -3 -8 5 -4 14 9 43 -12 35 -25 -3 -5 2 -6 10 -3 11 4 16 0 16 -10 0 -9 7
-19 15 -22 8 -4 15 -12 15 -19 0 -8 4 -16 9 -19 5 -4 7 4 3 16 -5 21 -4 22 11
9 9 -7 17 -20 17 -29 0 -8 3 -13 6 -9 4 3 -1 24 -10 47 -9 24 -12 40 -5 40 5
0 -2 10 -16 23 -16 13 -28 36 -30 57 -3 19 -14 47 -25 62 -11 15 -19 39 -18
53 l3 27 21 -25 c12 -14 25 -23 28 -20 3 4 11 -8 17 -25 6 -18 15 -29 20 -26
5 3 6 10 3 16 -4 7 -2 8 4 4 15 -9 15 -1 1 26 -15 27 -3 35 21 13 17 -16 20
-16 20 -2 0 9 -9 19 -20 22 -11 4 -18 10 -15 15 3 4 -2 13 -10 20 -8 7 -13 15
-11 19 3 4 1 13 -4 21 -8 13 -86 15 -532 15 -288 0 -543 -3 -568 -6z"/>
<path d="M7505 5835 c3 -5 8 -18 11 -27 4 -10 10 -18 16 -18 5 0 18 -16 30
-37 12 -20 24 -31 26 -25 2 7 -6 29 -18 49 -21 36 -21 37 -1 13 11 -14 21 -29
21 -34 0 -4 8 -5 18 -1 14 5 15 4 5 -6 -7 -7 -13 -17 -13 -23 0 -5 3 -7 6 -3
4 3 15 -4 25 -16 18 -20 19 -21 13 -2 -4 15 1 12 23 -11 15 -17 34 -39 41 -50
12 -18 12 -18 3 2 -7 15 -6 25 2 34 9 9 9 11 0 6 -7 -4 -14 3 -18 16 -4 13
-15 32 -24 42 -15 18 -15 18 4 8 11 -5 31 -29 45 -51 14 -23 31 -49 38 -59 11
-15 11 -14 2 6 -14 29 -6 40 16 21 23 -19 -71 133 -97 157 -17 15 -36 19 -100
19 -52 1 -78 -3 -74 -10z"/>
<path d="M2882 5830 c-13 -6 -37 -20 -55 -33 -36 -26 -79 -42 -182 -67 -39
-10 -81 -23 -93 -29 -14 -8 -22 -8 -22 -1 0 16 -14 12 -38 -10 -18 -17 -20
-25 -11 -42 9 -16 13 -18 19 -7 7 10 11 10 24 0 22 -18 114 -25 134 -9 11 10
16 10 19 1 3 -8 11 -7 31 3 15 8 35 14 44 14 9 0 20 5 23 11 4 6 13 8 20 5 7
-2 16 2 19 10 3 9 10 12 16 9 5 -3 10 -2 10 2 0 5 15 17 33 28 42 25 58 41 49
50 -4 5 -2 5 5 1 6 -3 16 2 22 11 6 10 11 14 11 8 0 -6 3 -6 8 0 4 6 20 21 36
33 l29 22 -46 0 c-27 0 -47 -5 -50 -12 -4 -10 -6 -10 -6 0 -1 14 -16 15 -49 2z"/>
<path d="M2830 5643 c0 -6 -11 -14 -25 -17 -14 -4 -24 -10 -21 -14 2 -4 -6 -7
-17 -8 -38 -2 -91 -15 -104 -26 -7 -6 -13 -6 -13 -1 0 5 -21 10 -47 11 -64 2
-78 5 -97 21 -12 10 -19 11 -30 2 -14 -11 -31 -74 -27 -98 1 -6 -3 -14 -9 -18
-5 -3 -10 -17 -10 -29 0 -13 -16 -71 -35 -129 -20 -60 -32 -113 -28 -123 5
-13 3 -16 -10 -11 -11 4 -14 2 -10 -8 3 -8 9 -12 14 -9 5 3 9 -2 9 -11 0 -9 5
-13 10 -10 19 12 10 -14 -12 -36 -13 -12 -17 -19 -11 -15 9 5 11 2 7 -8 -3 -8
-12 -12 -20 -9 -8 3 -14 0 -14 -6 0 -6 4 -11 9 -11 14 0 1 -37 -20 -56 -10 -9
-18 -27 -18 -38 1 -18 2 -18 6 -3 4 14 8 16 19 6 17 -14 19 -33 2 -23 -6 4 -8
3 -5 -3 3 -5 -3 -15 -13 -23 -10 -8 -17 -17 -14 -22 3 -4 -7 -8 -23 -9 -22 0
-24 -2 -10 -8 17 -6 16 -8 -8 -19 -33 -15 -42 -15 -27 0 17 17 15 33 -3 18 -8
-7 -15 -24 -16 -39 0 -19 -2 -22 -7 -9 -9 21 -32 10 -37 -18 -2 -10 -4 -21 -4
-24 -1 -3 -5 1 -10 9 -7 11 -16 7 -41 -19 -30 -30 -35 -32 -81 -27 -33 4 -49
2 -49 -5 0 -7 -6 -3 -14 7 -8 11 -19 16 -30 12 -9 -4 -16 -2 -16 3 0 5 -11 7
-24 4 -21 -4 -24 -1 -22 27 1 17 10 37 19 44 9 6 14 15 10 19 -4 4 -1 4 8 1 8
-3 26 3 39 15 13 11 27 20 32 20 5 0 7 4 4 9 -3 5 5 12 19 15 14 4 25 11 25
16 0 27 -135 -7 -206 -51 -80 -49 -148 -215 -159 -385 -8 -109 6 -171 51 -230
25 -33 23 -44 -8 -44 -12 0 -16 -4 -12 -12 4 -7 3 -8 -5 -4 -6 4 -18 2 -26 -4
-8 -7 -23 -9 -37 -4 -20 6 -21 5 -10 -9 8 -9 9 -18 4 -21 -6 -3 -13 1 -16 10
-6 15 -8 15 -24 0 -24 -21 -41 -20 -59 2 -8 9 -12 11 -8 5 3 -7 1 -13 -4 -13
-6 0 -11 5 -11 10 0 6 -7 10 -16 10 -9 0 -27 9 -41 20 -26 20 -44 26 -41 13 0
-5 -2 -16 -7 -26 -4 -9 -5 -29 -3 -42 3 -14 1 -25 -3 -25 -5 0 -6 -6 -3 -14 3
-8 1 -17 -5 -21 -12 -7 -15 -36 -3 -33 4 2 8 -1 9 -6 1 -5 7 -13 15 -18 9 -7
6 -8 -10 -5 -19 5 -22 2 -16 -15 5 -16 3 -19 -7 -12 -11 6 -11 4 0 -10 11 -13
16 -14 22 -4 7 10 9 11 9 0 0 -7 -7 -24 -16 -37 -13 -20 -14 -25 -3 -25 11 0
14 -17 13 -68 0 -37 3 -72 7 -77 18 -25 -5 -74 -118 -247 -29 -44 -53 -83 -53
-87 0 -5 -7 -22 -16 -40 -24 -47 -43 -138 -44 -201 0 -61 11 -109 42 -178 12
-26 22 -49 23 -52 1 -3 10 -22 19 -44 20 -44 13 -75 -28 -129 -14 -18 -48 -80
-75 -137 -28 -58 -51 -97 -51 -88 0 25 39 126 68 176 17 31 22 46 14 54 -17
17 -41 2 -60 -39 -9 -21 -21 -41 -27 -45 -6 -5 -5 -15 3 -29 8 -11 10 -19 5
-16 -4 3 -8 -25 -8 -62 0 -42 -5 -72 -14 -83 -8 -11 -10 -18 -3 -18 5 0 12
-26 14 -57 4 -62 40 -199 64 -247 10 -22 11 -32 3 -37 -7 -4 -8 -8 -1 -10 6
-2 8 -16 5 -30 l-5 -26 -26 24 c-19 18 -27 20 -34 11 -5 -9 -8 -8 -8 6 0 13
-5 16 -17 12 -10 -4 -14 -4 -11 0 4 3 -4 18 -18 33 -20 21 -26 23 -33 12 -8
-12 -12 -12 -25 2 -9 8 -16 23 -16 32 0 9 -11 26 -25 39 -14 13 -25 29 -25 37
0 10 -2 11 -12 0 -7 -6 -13 -15 -13 -19 0 -4 -11 -24 -24 -45 -13 -22 -24 -55
-25 -78 0 -22 -2 -35 -4 -29 -5 13 -22 13 -22 0 0 -9 -19 -33 -65 -84 -6 -6
-16 -31 -23 -56 -33 -113 -51 -184 -46 -191 2 -4 0 -10 -6 -14 -5 -3 -10 2
-11 12 0 10 -7 -2 -15 -27 -20 -60 -12 -119 27 -221 51 -134 66 -162 108 -194
22 -16 40 -36 41 -42 0 -10 209 -13 1009 -13 l1009 0 18 42 c10 24 18 45 19
48 9 41 33 92 56 121 15 20 31 48 34 62 4 14 13 28 20 31 16 6 65 97 65 119 0
18 117 135 155 155 17 8 41 27 55 42 14 15 42 37 63 50 65 38 76 76 80 275 4
161 14 180 162 297 173 136 300 182 493 178 80 -1 102 -4 102 -13 0 -5 4 -6 9
-3 5 3 27 -1 50 -9 23 -8 41 -10 41 -5 0 4 9 6 20 3 11 -3 20 -9 20 -14 0 -5
7 -5 17 -2 12 5 14 3 8 -7 -6 -10 -3 -12 15 -7 31 8 68 -11 49 -25 -11 -8 -10
-9 4 -4 22 7 60 -28 82 -76 l15 -33 -4 40 c-5 52 -57 198 -85 235 -11 16 -21
32 -21 36 0 4 -11 22 -25 39 -22 30 -24 39 -20 116 4 69 1 92 -16 129 -11 25
-27 86 -35 135 -20 124 -73 316 -92 339 -10 10 -45 38 -79 63 -54 38 -67 54
-99 121 -47 100 -54 117 -73 176 -12 35 -29 60 -63 88 l-46 40 -106 -53 c-58
-29 -106 -56 -106 -61 0 -4 -7 -8 -15 -8 -8 0 -31 -16 -51 -35 -20 -19 -40
-33 -45 -29 -5 3 -9 1 -9 -5 0 -10 -58 -29 -104 -35 -11 -1 -29 -6 -38 -10
-10 -5 -29 -2 -46 6 -15 8 -40 13 -55 11 -15 -2 -37 1 -49 8 -18 10 -20 9 -15
-5 4 -10 3 -14 -2 -11 -5 3 -12 1 -16 -5 -4 -6 -12 -8 -18 -4 -7 3 -4 -1 5 -9
19 -15 14 -29 -7 -21 -7 3 -18 -7 -24 -23 -21 -48 -35 -73 -44 -73 -4 0 -5 -4
-2 -10 3 -5 -1 -10 -9 -10 -8 0 -19 -6 -23 -13 -10 -16 -83 -51 -90 -43 -7 7
-33 -13 -33 -25 0 -17 20 -9 21 9 0 10 3 12 6 4 3 -9 18 -11 53 -6 49 6 49 6
44 -21 -3 -19 -1 -24 7 -19 8 4 9 3 5 -4 -4 -6 -13 -9 -21 -5 -10 3 -13 1 -10
-9 3 -8 -9 -21 -32 -33 -21 -11 -40 -22 -43 -26 -3 -3 -39 -27 -80 -53 -41
-27 -102 -72 -135 -100 -113 -98 -218 -152 -359 -185 -66 -16 -176 -23 -176
-11 0 6 -7 10 -15 10 -8 0 -14 3 -13 8 4 10 -44 72 -55 72 -29 0 -76 123 -92
240 -14 103 -3 310 16 310 5 0 9 9 9 19 0 27 46 151 73 200 13 22 38 57 56 76
18 20 34 45 36 56 2 11 12 32 23 47 10 15 26 47 35 72 27 69 68 114 108 115
61 3 65 5 79 29 8 16 18 22 28 19 9 -4 13 -2 9 4 -3 5 7 23 23 38 17 16 30 33
30 38 0 4 7 15 15 23 8 8 19 23 24 32 16 29 26 4 14 -38 -7 -26 -7 -40 0 -40
5 0 -2 -9 -17 -21 -14 -11 -26 -24 -26 -29 0 -4 -31 -58 -69 -118 -54 -89 -74
-132 -99 -219 -51 -177 -65 -313 -38 -375 18 -41 31 -53 17 -15 -5 13 -7 36
-4 51 4 22 3 27 -7 21 -9 -6 -10 -3 -1 13 6 11 11 38 11 59 0 22 4 43 9 49 4
5 14 38 20 73 31 161 146 438 201 484 11 10 19 21 16 26 -3 4 10 8 29 9 20 1
35 -3 35 -10 0 -6 3 -8 7 -5 3 4 2 17 -4 30 -11 23 -28 99 -38 177 -8 54 8
186 35 295 23 94 25 115 7 115 -7 0 -25 12 -39 28 -24 24 -26 34 -23 82 2 30
5 90 7 133 3 73 9 90 23 67 10 -17 38 -12 31 6 -4 12 -1 14 14 9 11 -4 20 -2
20 4 0 6 -7 11 -15 11 -8 0 -15 5 -15 11 0 5 5 7 12 3 7 -5 9 -2 5 9 -4 11 3
18 24 26 16 5 29 7 29 3 0 -4 9 6 19 22 11 17 17 34 14 39 -3 6 -1 7 4 4 17
-11 39 21 25 35 -8 8 -12 9 -12 1z"/>
<path d="M3473 5544 c1 -16 7 -29 12 -28 6 0 17 -9 27 -21 9 -11 46 -51 82
-89 36 -37 66 -72 66 -77 0 -6 5 -7 11 -4 6 4 13 -2 16 -14 3 -11 14 -23 24
-26 10 -4 19 -11 19 -16 0 -5 10 -7 23 -5 12 3 25 5 28 5 4 1 9 12 11 26 4 17
1 25 -9 25 -9 0 -13 6 -9 15 3 8 1 15 -5 15 -11 0 -39 24 -39 34 0 2 -13 18
-30 34 -16 17 -30 28 -30 26 0 -3 -17 13 -38 34 -21 21 -44 36 -52 34 -8 -3
-12 -1 -8 3 8 8 -26 37 -47 42 -5 1 -20 5 -32 9 -19 5 -22 3 -20 -22z"/>
<path d="M4922 5517 c-1 -23 -6 -36 -12 -32 -7 4 -9 -57 -8 -177 0 -111 4
-165 8 -138 7 44 7 44 10 10 l3 -35 7 35 c4 19 8 27 9 18 0 -10 6 -18 11 -18
6 0 10 -7 10 -15 0 -8 4 -15 10 -15 5 0 7 13 4 30 -4 19 -2 30 5 30 6 0 11 -5
11 -10 0 -6 12 -23 26 -37 18 -18 29 -43 34 -77 7 -43 8 -38 6 36 -1 84 -2 88
-23 88 -13 0 -23 5 -23 10 0 6 -8 10 -17 8 -13 -2 -17 7 -20 46 -2 27 -8 55
-14 63 -8 9 -8 13 0 13 6 0 11 9 11 20 0 11 -4 20 -9 20 -5 0 -9 21 -9 46 0
77 -12 62 -14 -17 -2 -69 -2 -68 -8 31 -3 58 -7 88 -8 67z"/>
<path d="M8807 5441 c3 -10 -1 -22 -8 -27 -9 -5 -11 -2 -6 9 4 11 2 14 -8 11
-11 -5 -11 -11 -3 -30 6 -13 15 -24 20 -24 4 0 8 -5 8 -11 0 -5 -4 -7 -10 -4
-5 3 -10 1 -10 -4 0 -6 5 -11 10 -11 6 0 10 -10 10 -22 0 -21 0 -21 -15 -2
-14 17 -15 14 -9 -36 4 -30 11 -65 15 -78 5 -14 5 -21 0 -18 -10 7 -7 -80 4
-106 4 -10 3 -18 -3 -18 -5 0 -10 -26 -11 -57 -1 -32 -6 -87 -12 -123 -6 -36
-12 -86 -13 -111 -3 -51 -12 -72 -28 -63 -6 4 -6 9 3 15 11 6 11 13 -1 36 -8
15 -16 32 -19 37 -2 5 1 6 7 2 17 -10 15 16 -4 42 -9 13 -13 31 -10 40 5 13 2
12 -10 -3 -16 -20 -16 -20 -10 1 4 13 1 26 -9 34 -17 14 -20 30 -5 30 6 0 10
-6 10 -14 0 -8 4 -17 8 -20 12 -7 2 96 -10 111 -6 7 -7 25 -4 40 5 22 4 25 -4
13 -9 -12 -10 -8 -5 15 7 39 -17 77 -36 58 -11 -11 -10 -15 0 -25 11 -10 12
-10 7 -1 -5 9 -2 11 10 6 15 -5 15 -8 2 -17 -18 -13 -19 -76 -1 -69 7 3 10 -3
6 -16 -3 -12 -1 -27 4 -34 8 -11 10 -33 3 -39 -7 -8 -5 -58 3 -58 5 0 7 -6 4
-14 -3 -8 -3 -17 1 -21 11 -10 11 -119 0 -126 -7 -4 -6 -14 2 -29 13 -23 6
-70 -10 -70 -5 0 -13 12 -16 28 -4 15 -15 46 -25 68 -11 27 -14 45 -8 51 12
12 1 65 -11 58 -9 -6 -19 78 -10 85 3 3 0 16 -8 30 l-13 25 3 -26 c6 -37 -16
-54 -31 -23 -16 35 -13 44 4 14 l14 -25 1 28 c0 15 -4 27 -10 27 -5 0 -10 10
-11 23 -1 21 -1 21 -10 -3 -7 -19 -7 -16 -3 13 3 26 2 37 -5 32 -7 -3 -8 0 -5
9 3 9 1 16 -5 16 -6 0 -11 12 -11 26 0 16 -4 23 -12 18 -7 -4 -8 -3 -4 5 4 6
3 18 -3 25 -6 7 -10 20 -8 27 2 8 2 10 -1 5 -8 -15 -32 54 -32 93 0 27 3 32
10 21 13 -21 12 -6 -1 24 -7 14 -16 23 -22 19 -5 -3 -6 3 -2 16 4 12 2 21 -4
21 -6 0 -11 11 -11 24 0 14 -4 27 -8 30 -11 6 -7 -44 11 -139 17 -89 14 -113
-4 -41 -6 25 -15 46 -19 46 -5 0 -6 10 -4 23 4 21 4 21 -6 2 -9 -17 -10 -15
-7 11 2 23 0 31 -10 27 -16 -6 -16 -5 -1 -40 6 -15 12 -30 12 -33 5 -20 41
-107 48 -114 4 -6 8 -17 8 -25 0 -14 -1 -14 -10 -1 -5 8 -10 10 -10 4 0 -6 9
-23 20 -36 10 -14 17 -28 14 -31 -3 -3 0 -15 6 -27 7 -12 13 -36 15 -54 5 -47
32 -174 55 -260 11 -43 22 -83 23 -89 1 -7 5 -14 8 -17 3 -3 19 -47 36 -98 26
-78 28 -90 12 -76 -10 9 -17 19 -16 23 4 14 -48 91 -61 91 -12 0 -12 3 -2 15
6 8 10 20 7 27 -4 8 -6 7 -6 -4 -1 -10 -6 -18 -12 -18 -6 0 -9 9 -6 20 3 11 1
20 -4 20 -5 0 -9 6 -9 13 0 8 -11 24 -25 37 -15 14 -23 30 -20 41 3 9 0 29 -6
45 -6 16 -12 40 -14 53 -1 14 -12 33 -24 42 -12 10 -22 20 -22 23 0 3 -7 20
-15 38 -12 26 -14 27 -10 8 3 -14 8 -45 12 -70 4 -25 10 -47 14 -50 12 -9 21
-48 12 -54 -5 -3 -15 17 -22 45 -9 32 -18 48 -26 45 -10 -4 -11 1 -3 21 10 28
3 46 -10 24 -8 -12 -22 48 -22 92 0 10 -5 15 -11 11 -8 -5 -9 -1 -5 11 4 9 3
23 -1 29 -16 20 -31 76 -21 76 5 0 9 5 9 11 0 5 -4 8 -8 5 -5 -3 -7 9 -5 27 3
26 1 28 -6 12 -9 -20 -10 -20 -10 1 -1 12 -8 38 -16 59 -12 27 -13 40 -5 50 8
9 8 15 0 20 -5 3 -10 15 -10 26 0 10 -4 19 -9 19 -4 0 -8 -13 -7 -29 1 -16 3
-28 6 -26 3 2 6 -50 8 -115 1 -65 5 -133 8 -152 3 -18 7 -55 9 -83 2 -27 7
-66 11 -85 4 -19 8 -44 10 -55 2 -11 7 -33 10 -49 5 -20 4 -27 -5 -22 -22 14
-8 -66 44 -259 9 -33 18 -73 20 -89 3 -16 9 -34 15 -40 5 -5 10 -18 10 -29 0
-10 4 -16 9 -13 14 9 21 -19 14 -57 -4 -30 -1 -38 21 -52 14 -10 26 -22 26
-29 0 -8 -2 -8 -8 0 -4 7 -16 13 -27 15 -13 3 -22 16 -28 42 -10 42 -30 51
-22 10 5 -27 5 -27 -7 2 -6 16 -17 36 -25 43 -7 7 -13 20 -13 29 0 8 -6 27
-14 41 -27 49 -66 141 -66 153 0 7 -3 10 -6 6 -3 -3 1 -27 10 -53 19 -56 19
-54 7 -54 -5 0 -13 15 -17 32 -3 18 -14 48 -23 67 -12 26 -13 35 -4 38 8 3 9
10 3 21 -11 22 -47 138 -55 182 -4 19 -11 40 -15 45 -5 6 -9 15 -10 20 -5 21
-12 41 -21 58 -5 10 -6 23 -2 30 4 8 1 8 -9 -1 -17 -14 -15 -30 8 -67 18 -30
27 -82 15 -90 -6 -3 -11 -11 -11 -18 0 -6 6 -3 13 6 10 15 15 9 31 -50 11 -38
22 -72 26 -78 13 -18 18 -55 9 -55 -5 0 -3 -12 5 -27 12 -25 12 -30 -2 -43
-14 -13 -15 -12 -9 3 3 9 2 17 -3 17 -6 0 -10 7 -10 15 0 9 -7 29 -15 46 -9
16 -17 43 -18 59 -1 17 -5 30 -8 30 -4 0 -5 14 -4 30 2 19 -2 30 -10 30 -16 0
-31 34 -85 187 -23 67 -48 130 -55 140 -21 28 -28 8 -12 -29 30 -66 47 -119
47 -142 0 -12 3 -26 7 -30 4 -3 8 -16 10 -28 2 -12 10 -32 17 -43 8 -12 17
-39 20 -60 4 -21 10 -43 15 -49 4 -6 11 -24 15 -41 8 -36 91 -245 117 -297 22
-43 24 -52 7 -42 -8 5 -9 2 -4 -12 5 -10 10 -28 13 -39 4 -20 4 -20 -11 -1 -9
11 -16 25 -16 30 0 6 -7 2 -15 -8 -17 -23 -20 -14 -5 15 6 11 7 19 1 19 -15 0
-51 69 -45 85 5 11 2 13 -10 9 -19 -7 -19 -9 -3 -57 8 -20 22 -44 33 -52 19
-14 19 -14 -1 -15 -18 0 -18 -1 4 -16 19 -14 25 -14 32 -3 5 8 9 9 9 3 0 -16
-25 -35 -35 -26 -4 4 -6 0 -3 -8 3 -8 10 -16 16 -16 7 -1 17 -2 23 -3 5 0 8
-5 4 -10 -7 -13 32 -34 47 -25 6 4 8 3 4 -4 -3 -6 4 -14 16 -17 13 -4 33 -19
45 -34 25 -29 30 -46 11 -35 -9 5 -9 2 1 -9 15 -18 26 -23 16 -7 -3 6 -1 10 4
10 6 0 11 -4 11 -8 0 -5 11 -15 25 -22 14 -7 23 -15 21 -17 -2 -3 -14 1 -26 7
-18 10 -21 9 -15 -1 6 -9 3 -11 -8 -6 -10 4 -17 2 -17 -4 0 -7 10 -9 23 -6 12
4 27 3 33 -1 13 -9 14 -42 1 -42 -19 0 -67 42 -67 59 0 10 -7 24 -15 31 -13
10 -13 15 -3 21 9 6 5 15 -15 33 -16 14 -35 26 -43 26 -8 0 -26 7 -39 16 -14
9 -25 12 -25 6 0 -6 9 -14 21 -17 11 -4 18 -9 16 -12 -11 -10 -48 19 -43 33 3
8 2 14 -3 14 -5 0 -16 15 -25 34 -8 18 -22 39 -31 46 -8 7 -15 23 -15 35 0 12
-7 28 -15 35 -8 7 -15 19 -15 27 0 8 -3 12 -7 10 -5 -3 -9 7 -10 21 0 14 -9
32 -19 39 -10 7 -14 13 -8 13 5 1 -4 7 -21 14 -16 7 -31 13 -32 12 -1 -1 5
-21 13 -45 12 -36 13 -46 2 -54 -9 -6 -8 -7 6 -3 14 5 17 2 12 -11 -4 -10 -4
-14 0 -11 3 4 12 1 19 -6 14 -14 45 -97 45 -121 0 -8 9 -23 21 -33 17 -17 18
-20 5 -25 -10 -4 -16 -1 -16 7 0 7 -7 19 -15 26 -8 7 -15 9 -15 6 0 -6 25 -49
38 -66 1 -2 7 2 12 10 9 13 10 13 11 0 1 -8 2 -19 4 -25 1 -5 3 -15 3 -22 1
-6 16 -22 33 -34 30 -21 31 -21 20 -1 -6 11 -16 22 -23 25 -7 2 -10 8 -6 12 4
5 17 -4 29 -19 28 -36 46 -53 61 -59 8 -2 9 -8 4 -13 -5 -5 -11 -4 -13 4 -3 6
-10 12 -16 12 -7 -1 2 -12 18 -25 17 -14 24 -25 17 -25 -17 0 -214 199 -212
215 1 3 -6 18 -14 33 -8 15 -22 44 -32 65 -9 20 -21 37 -26 37 -6 0 -3 -11 5
-24 9 -13 13 -26 10 -30 -9 -8 -41 57 -35 72 2 7 -1 12 -8 10 -7 -2 -17 10
-23 27 -6 16 -16 36 -24 43 -19 19 -27 62 -15 74 12 12 -9 75 -40 120 -10 14
-18 38 -18 51 0 14 -4 28 -9 32 -5 3 -12 19 -16 36 -4 17 -13 33 -20 35 -15 6
-28 44 -15 44 10 0 -11 62 -24 72 -5 3 -9 21 -8 39 1 25 -2 30 -9 19 -8 -11
-8 -8 -3 10 13 46 12 69 -4 82 -14 11 -15 10 -9 -6 6 -16 5 -17 -8 -6 -11 9
-13 16 -5 24 12 12 13 29 1 22 -11 -7 -21 27 -21 72 0 17 -4 32 -10 32 -5 0
-6 8 -3 17 5 12 2 15 -9 11 -11 -5 -15 0 -15 18 0 29 -23 115 -33 127 -11 12
-2 -117 10 -164 6 -21 15 -39 20 -39 8 0 10 -15 13 -102 1 -20 5 -34 9 -32 4
3 8 0 8 -5 0 -6 -3 -11 -8 -11 -4 0 -3 -29 2 -64 6 -36 14 -63 18 -60 7 5 12
-21 6 -29 -2 -2 2 -10 8 -18 7 -8 15 -29 19 -46 4 -22 12 -33 23 -33 13 0 14
2 3 9 -8 5 -11 16 -6 30 3 11 3 26 -2 33 -15 24 -31 78 -22 78 4 0 11 -9 14
-20 3 -11 12 -20 18 -20 7 0 6 -4 -3 -10 -10 -6 -11 -10 -2 -10 6 0 12 -9 12
-20 0 -22 31 -93 43 -98 11 -6 8 -50 -4 -54 -6 -2 -12 -16 -12 -31 -2 -28 -4
-27 -34 20 -11 17 -11 16 -6 -4 4 -18 -3 -25 -44 -43 -26 -12 -52 -23 -58 -24
-5 -2 -23 -8 -38 -14 -16 -7 -34 -12 -41 -12 -6 0 -17 -5 -24 -12 -6 -6 -19
-13 -29 -14 -40 -6 -60 -14 -81 -34 -13 -12 -22 -16 -22 -8 0 9 -3 9 -11 1 -6
-6 -19 -9 -28 -6 -13 4 -13 3 -2 -5 11 -8 8 -13 -13 -27 l-27 -18 23 -12 c13
-6 28 -8 34 -4 6 5 24 8 40 8 25 -1 64 5 72 11 1 2 5 3 10 4 4 1 23 9 42 18
19 9 61 26 93 38 31 12 60 26 62 30 3 5 16 7 30 6 13 -2 22 1 19 5 -8 14 10
11 25 -3 10 -11 11 -9 6 7 -3 11 1 7 9 -10 8 -16 15 -36 16 -44 0 -8 6 -11 16
-7 12 4 15 2 10 -9 -3 -8 0 -15 7 -15 8 0 6 -4 -3 -10 -13 -8 -12 -10 4 -10
14 0 17 -5 12 -25 -5 -21 -3 -25 16 -25 21 0 21 -1 -5 -15 -25 -13 -32 -13
-56 -1 -55 29 -281 57 -281 35 0 -7 -3 -9 -6 -6 -9 9 -101 -42 -108 -59 -4
-12 -1 -11 17 0 12 8 39 22 60 31 l37 15 0 -30 c0 -21 -4 -29 -12 -24 -6 4 -8
3 -5 -3 4 -6 18 -8 32 -5 23 4 25 1 25 -31 0 -45 45 -87 94 -87 38 0 83 31 97
67 7 20 11 22 27 12 20 -13 25 -68 8 -81 -6 -4 -4 -13 3 -22 9 -11 10 -16 2
-16 -6 0 -11 4 -11 9 0 5 -7 11 -15 15 -19 7 -19 1 1 -18 18 -19 89 -23 78 -4
-5 8 -2 9 10 5 10 -4 19 -1 22 8 4 10 12 11 27 6 12 -5 28 -6 36 -3 7 2 18 -2
23 -9 7 -10 8 -3 5 21 l-6 35 15 -34 c13 -28 13 -36 2 -43 -10 -8 -10 -9 2 -6
8 3 17 15 21 29 7 22 7 23 8 2 1 -12 8 -29 17 -37 8 -9 12 -20 9 -26 -4 -6 -3
-9 2 -8 15 4 64 -35 59 -47 -3 -9 2 -11 16 -7 14 3 19 1 14 -6 -10 -17 4 -61
18 -56 20 8 39 -40 33 -82 -9 -65 -12 -79 -18 -84 -3 -3 -21 -61 -38 -130 -37
-144 -75 -258 -105 -315 -21 -40 -46 -72 -46 -60 0 10 -25 -18 -32 -35 -18
-43 -107 -135 -187 -195 -50 -37 -91 -74 -91 -81 0 -8 -5 -14 -12 -14 -6 0 -9
-3 -6 -6 4 -3 16 0 28 6 20 11 21 10 9 -12 -7 -13 -14 -50 -15 -83 -2 -33 -5
-71 -7 -85 -9 -59 -20 -116 -24 -135 -9 -39 -11 -283 -2 -296 7 -11 9 -9 7 6
-4 55 3 96 18 102 9 3 20 0 24 -8 5 -7 12 -10 16 -6 4 3 15 -3 25 -15 11 -11
19 -16 19 -10 0 7 7 12 15 12 9 0 12 -6 9 -15 -4 -8 -1 -21 5 -28 13 -16 19
-167 8 -222 -7 -40 -7 -40 8 -13 9 15 20 65 26 110 5 46 12 91 15 101 7 22 24
22 25 0 0 -11 3 -13 6 -5 2 6 14 12 24 12 12 0 17 -5 14 -10 -8 -13 12 -40 29
-40 6 0 5 4 -3 9 -9 6 -10 11 -2 15 6 4 13 -5 17 -21 10 -41 13 -44 35 -33 13
7 19 7 19 0 0 -5 -7 -10 -15 -10 -9 0 -15 -9 -15 -22 1 -22 1 -23 15 -4 15 20
20 12 16 -22 -2 -16 11 -16 28 1 11 10 13 9 8 -4 -3 -10 4 -26 20 -40 l25 -24
-6 30 c-6 27 -5 28 4 7 11 -26 5 -46 -12 -36 -6 4 -9 1 -6 -7 3 -8 11 -14 18
-14 17 0 19 -10 35 -175 3 -36 7 -74 8 -85 1 -11 6 -26 10 -32 5 -7 4 -13 0
-13 -5 0 -8 -32 -8 -72 1 -39 -2 -87 -7 -107 -4 -20 -10 -57 -14 -83 -3 -26
-12 -54 -20 -62 -9 -10 -10 -17 -4 -21 6 -4 1 -15 -12 -26 -13 -12 -17 -18
-10 -14 19 10 14 -19 -8 -43 -48 -52 -52 -51 379 -52 418 0 432 1 415 43 -3 9
9 29 31 52 41 40 41 56 1 30 -26 -17 -27 -17 -49 7 -25 27 -26 58 -2 38 20
-17 38 23 33 76 -3 42 -2 44 24 44 42 0 71 44 66 102 -4 38 -2 45 10 40 11 -4
13 -2 6 9 -4 8 -9 20 -10 27 -4 22 -11 24 -27 8 -20 -20 -28 -10 -15 19 11 24
-3 65 -22 65 -6 0 -10 5 -10 11 0 8 5 8 15 -1 8 -7 15 -10 15 -7 0 16 62 -19
76 -42 l15 -26 -7 25 c-7 28 -41 59 -64 60 -12 0 -14 11 -12 50 3 31 -1 56 -9
66 -9 11 -10 17 -1 23 6 3 10 22 9 41 0 19 2 49 6 65 5 17 4 25 -1 17 -5 -7
-17 -10 -28 -6 -16 5 -16 4 -4 -5 12 -8 12 -11 1 -11 -11 0 -11 -3 -1 -15 22
-27 5 -33 -36 -14 -32 15 -43 28 -52 57 -6 20 -10 28 -10 17 0 -11 -1 -24 -2
-30 -5 -25 2 -129 10 -149 6 -14 8 2 6 47 -2 37 -1 67 3 67 3 -1 20 -9 36 -18
30 -17 37 -36 21 -60 -5 -9 -1 -15 13 -19 22 -6 29 -23 9 -23 -6 0 -3 -10 8
-21 19 -21 19 -22 -3 -15 -18 6 -23 3 -23 -11 0 -11 6 -25 13 -32 10 -11 9
-13 -4 -8 -13 4 -16 1 -11 -16 3 -12 13 -28 21 -35 9 -8 10 -11 4 -7 -7 3 -28
8 -47 10 -20 3 -41 6 -47 7 -6 2 -14 -3 -16 -9 -2 -7 16 -25 41 -40 35 -21 44
-32 40 -46 -7 -23 14 -49 35 -42 31 9 44 -10 36 -52 -4 -28 -14 -44 -30 -53
-25 -13 -45 -7 -45 14 0 8 -9 16 -20 19 -15 4 -20 14 -20 40 0 19 7 40 15 47
12 10 13 16 4 26 -6 8 -15 12 -19 9 -4 -3 -13 2 -20 10 -17 20 -33 8 -20 -15
5 -10 10 -28 10 -39 0 -10 9 -40 20 -66 20 -47 34 -131 24 -147 -10 -16 -53
60 -47 84 4 19 3 20 -7 8 -9 -13 -11 -12 -8 5 1 11 -5 34 -15 50 -16 30 -16
30 -17 5 -1 -16 -7 -5 -16 28 -8 30 -12 58 -9 62 3 5 1 10 -4 12 -9 3 -42 105
-44 136 0 6 -3 12 -7 12 -3 0 -12 23 -20 52 -7 29 -21 61 -31 72 -11 11 -19
26 -19 33 0 7 -4 13 -9 13 -5 0 -12 18 -16 40 -4 22 -11 40 -16 40 -4 0 -5 7
-2 17 4 10 2 14 -4 10 -12 -7 -46 77 -35 87 3 3 0 6 -7 6 -9 0 -11 8 -8 21 3
12 3 19 0 16 -3 -3 -24 32 -47 77 -24 46 -68 116 -99 156 -31 39 -57 80 -57
89 0 9 -5 22 -11 28 -6 6 -12 34 -13 63 -2 29 -8 55 -16 60 -7 4 -9 13 -5 20
5 8 4 11 -2 7 -6 -4 -13 7 -17 26 l-7 32 -21 -25 -21 -25 8 35 c7 31 15 140
17 223 1 20 3 24 9 15 6 -8 9 1 9 27 1 52 17 130 19 95 2 -24 3 -24 11 -4 5
12 13 25 19 29 6 3 11 11 11 16 0 6 -4 8 -8 5 -4 -2 -8 5 -9 17 0 12 1 16 4
10 9 -25 18 -12 20 30 2 45 21 108 22 75 1 -10 5 -18 11 -18 5 0 7 7 4 15 -4
8 -1 22 6 30 9 10 9 15 1 15 -6 0 -11 5 -11 10 0 6 6 10 13 10 7 0 13 15 14
34 2 18 10 46 18 62 15 28 16 27 11 -36 -3 -36 -3 -54 0 -40 2 14 9 43 14 65
6 22 12 51 14 65 2 14 7 43 10 65 l7 40 -16 -30 c-17 -33 -17 -35 1 60 7 37 8
38 15 15 8 -24 8 -23 6 5 -1 37 24 97 39 91 6 -2 16 0 21 5 7 7 10 -10 11 -48
1 -32 4 -75 8 -96 3 -21 2 -43 -4 -50 -11 -13 -10 -29 3 -60 4 -10 5 -21 1
-24 -3 -4 -6 -1 -6 6 0 7 -4 10 -10 6 -5 -3 -7 -12 -3 -21 3 -8 0 -34 -6 -57
-6 -24 -13 -74 -16 -110 -3 -37 -12 -82 -20 -101 -8 -19 -16 -49 -17 -66 -1
-17 -6 -34 -10 -36 -18 -11 -7 -23 15 -15 12 4 28 6 36 3 9 -3 12 0 9 9 -6 15
16 42 26 32 3 -4 6 -1 6 5 0 7 5 12 11 12 5 0 8 -3 6 -7 -3 -5 7 -9 21 -10 22
-1 23 1 9 8 -24 14 -21 39 5 39 17 0 19 3 10 12 -16 16 -15 48 1 48 9 0 9 2
-1 9 -11 7 -11 16 2 55 9 26 16 57 16 69 0 12 7 32 15 44 11 16 12 22 2 26 -6
2 6 15 27 28 39 23 39 24 15 29 -20 5 -24 12 -21 40 1 19 6 37 11 40 5 3 11
15 15 27 5 16 2 23 -12 27 -11 4 -28 16 -38 27 -15 17 -16 23 -5 41 10 16 10
22 1 28 -8 5 -7 11 4 23 24 24 83 41 161 46 11 1 31 10 44 20 23 18 22 18 -63
17 -48 -1 -92 2 -99 7 -8 6 -5 7 7 3 17 -6 17 -5 5 11 -8 10 -17 20 -20 23 -4
3 -3 27 1 53 7 50 2 61 -24 51 -12 -5 -14 -10 -6 -19 7 -9 7 -15 1 -19 -5 -4
-14 2 -20 11 -5 10 -12 17 -15 16 -7 -4 -7 2 1 22 3 9 3 19 -1 22 -3 4 -6 -1
-6 -11 0 -10 -5 -14 -11 -11 -7 5 -4 14 7 26 13 15 15 22 6 31 -7 7 -11 21
-11 33 1 15 2 16 6 3 2 -9 10 -19 18 -22 10 -3 12 0 8 11 -4 11 -2 14 5 9 7
-4 12 -14 12 -22 0 -8 7 -14 16 -14 8 0 12 -5 9 -10 -4 -6 -11 -8 -16 -5 -5 4
-9 -3 -9 -15 0 -13 -4 -19 -12 -14 -6 4 -8 3 -4 -4 4 -7 17 -8 38 -2 17 5 36
7 42 4 6 -3 3 1 -7 9 -13 11 -17 26 -15 49 l3 33 31 -30 c17 -17 33 -36 35
-43 5 -15 47 -24 54 -11 12 19 107 -17 167 -64 21 -16 43 -25 49 -21 8 5 9 3
4 -6 -6 -10 -4 -12 8 -7 10 4 14 2 11 -6 -2 -7 12 -28 33 -47 20 -19 33 -28
28 -20 -5 9 -5 12 1 7 5 -5 9 -14 10 -20 0 -7 2 -20 2 -29 1 -10 7 -18 12 -18
6 0 8 11 4 28 -6 26 -6 26 9 8 13 -18 14 -14 10 48 -4 49 -2 67 6 62 6 -4 12
-31 12 -59 l2 -52 7 55 c4 30 5 66 2 80 -5 24 -5 24 13 6 14 -14 16 -22 8 -35
-6 -10 -7 -25 -2 -39 10 -27 29 -21 22 7 -3 10 0 22 6 25 8 5 6 18 -4 43 -8
20 -12 39 -9 42 4 3 9 0 11 -6 3 -7 11 -13 19 -13 12 0 12 4 4 20 -9 16 -8 20
5 20 9 0 15 -9 16 -22 1 -22 1 -22 8 2 6 19 3 29 -13 42 l-21 18 21 0 c18 0
21 6 20 29 -1 16 -5 33 -9 37 -14 14 -7 32 16 39 12 3 17 9 10 11 -7 3 -22 0
-35 -7 -20 -11 -21 -10 -11 3 10 11 10 17 1 26 -9 9 -9 12 -1 12 7 0 15 -5 19
-11 4 -8 9 -7 15 2 14 23 11 42 -7 35 -12 -4 -14 -1 -9 14 5 15 3 18 -9 14
-20 -8 -20 3 -1 22 25 25 19 44 -12 40 -16 -2 -22 -1 -15 1 6 2 12 8 12 12 0
17 38 8 47 -12 6 -13 12 -17 16 -10 4 6 0 18 -8 26 -8 9 -15 21 -15 28 0 6 -8
18 -17 25 -10 7 -13 14 -8 14 6 0 10 12 9 28 -1 15 3 33 9 40 5 7 7 15 3 19
-10 11 -17 -3 -23 -46 -3 -23 -10 -41 -15 -41 -6 0 -7 -12 -4 -27 5 -19 4 -24
-3 -14 -10 15 -8 88 3 98 3 4 6 17 6 30 0 17 6 23 21 23 11 0 18 4 15 9 -3 5
-8 26 -11 46 -5 43 -15 60 -15 27 0 -16 -6 -22 -22 -23 -21 -1 -20 -2 5 -11
28 -10 37 -28 13 -28 -7 0 -27 -7 -42 -15 -28 -15 -29 -14 -32 12 -2 14 -10
32 -18 40 -12 12 -17 28 -16 53 0 3 3 21 7 40 7 33 6 34 -9 15 -15 -20 -15
-20 -16 1 0 11 5 25 12 32 9 9 9 12 -2 13 -8 0 -4 5 9 10 19 7 21 12 11 24 -6
8 -9 19 -5 26 4 6 1 16 -6 21 -11 8 -10 9 3 4 10 -3 20 -1 23 3 6 11 -13 27
-40 34 -18 4 -18 5 3 6 23 1 32 34 12 46 -5 3 -10 -1 -10 -9 0 -9 -6 -16 -14
-16 -8 0 -16 -4 -18 -9 -1 -5 -10 -2 -18 7 -13 14 -12 15 3 9 11 -4 20 0 27
13 6 11 7 20 3 20 -4 0 -2 5 5 12 17 17 15 28 -5 29 -10 0 -13 3 -7 5 13 5 6
51 -8 60 -6 4 -7 -2 -3 -17 7 -23 7 -23 -12 -6 -11 9 -27 17 -36 17 -16 0 -21
20 -20 67 0 7 -4 11 -11 10 -7 -1 -10 17 -9 53 1 30 -1 47 -3 38 -8 -25 -21
-22 -26 6 -4 17 -1 23 9 19 17 -6 17 14 1 20 -10 4 -10 8 1 15 11 8 10 13 -5
31 -25 29 -34 26 -34 -8 0 -17 -5 -33 -12 -37 -8 -5 -9 2 -5 26 6 28 5 31 -8
20 -9 -7 -19 -10 -22 -6 -4 4 -2 11 6 15 9 6 6 10 -11 14 -34 10 -37 9 -31
-12z"/>
<path d="M3300 5413 c0 -6 -12 -11 -27 -11 -36 0 -83 -18 -100 -40 -8 -9 -11
-11 -7 -3 5 10 3 12 -5 7 -9 -6 -8 -12 4 -26 9 -10 14 -23 11 -28 -6 -10 80
-10 90 1 4 4 18 7 31 7 19 0 23 -5 23 -30 0 -64 50 -112 91 -87 11 7 17 18 14
24 -6 17 4 43 17 43 6 0 7 -11 4 -25 -5 -19 -3 -23 9 -19 8 4 19 20 23 37 l8
31 29 -37 c21 -26 33 -33 41 -26 7 6 10 18 7 27 -4 11 2 8 15 -7 12 -13 22
-31 22 -39 0 -12 3 -12 15 -2 8 7 15 19 15 27 0 31 -71 112 -97 113 -7 0 -13
5 -13 11 0 5 -5 7 -10 4 -6 -4 -17 -1 -25 5 -8 7 -23 10 -33 8 -19 -5 -42 13
-42 34 -1 9 -4 8 -10 -3 -11 -19 -79 -16 -92 3 -5 9 -8 10 -8 1z"/>
<path d="M940 5175 c0 -13 -52 -408 -60 -460 -14 -83 -40 -193 -56 -238 -8
-20 -14 -45 -14 -55 1 -23 39 87 40 113 0 11 9 34 20 50 11 17 20 45 20 63 0
18 7 44 16 57 13 20 14 28 4 40 -11 13 -10 14 4 9 9 -3 16 -1 16 5 0 6 -4 11
-10 11 -5 0 -10 5 -10 11 0 6 6 9 13 6 9 -3 13 7 13 34 1 21 -2 36 -7 33 -4
-2 -4 8 2 24 11 32 8 74 -6 84 -6 4 -2 8 9 8 15 0 16 3 6 15 -10 12 -10 18 -1
29 7 9 10 30 6 53 -4 28 -3 33 4 18 7 -15 9 -10 7 22 -2 23 1 40 5 37 5 -3 9
0 9 5 0 6 -5 11 -11 11 -5 0 -7 5 -4 10 3 6 1 10 -4 10 -6 0 -11 -2 -11 -5z"/>
<path d="M630 4763 c0 -11 -4 -23 -8 -28 -4 -6 -23 -46 -41 -90 -18 -44 -37
-89 -41 -100 -16 -39 -52 -298 -53 -386 0 -27 6 -60 13 -73 7 -14 10 -33 6
-43 -4 -10 -7 -20 -7 -23 0 -3 -7 -15 -15 -28 -13 -20 -26 -75 -39 -172 -2
-14 -11 -101 -20 -195 -8 -93 -20 -188 -25 -210 -10 -44 -22 -131 -14 -102 3
9 9 17 14 17 9 0 26 67 22 83 -1 4 3 7 8 7 6 0 10 6 9 13 -5 24 14 132 29 167
8 19 17 50 19 69 3 19 11 51 18 72 8 20 11 40 8 43 -3 2 5 19 17 36 12 17 24
41 26 53 2 12 8 51 14 87 6 38 16 68 25 73 8 4 15 13 15 18 0 6 -6 7 -12 3 -7
-4 -3 3 10 15 27 26 28 32 5 24 -14 -5 -13 0 6 20 13 14 20 31 16 37 -4 7 -2
15 4 19 11 7 15 24 27 120 4 32 2 41 -6 36 -9 -5 -10 -1 -4 16 4 13 7 33 6 43
0 11 3 27 9 38 5 10 6 18 1 18 -5 0 -8 58 -7 130 1 73 -2 133 -7 136 -5 3 -8
20 -6 37 2 18 -2 32 -9 34 -8 3 -13 -4 -13 -14z"/>
<path d="M6525 4560 c4 -6 1 -18 -7 -27 -11 -15 -11 -16 5 -10 13 5 17 3 14
-5 -2 -7 19 -27 47 -43 53 -32 169 -79 161 -65 -3 4 3 11 12 14 15 6 15 8 3
16 -8 5 -15 15 -15 22 0 7 -4 13 -10 14 -22 2 -65 24 -65 34 0 5 -9 10 -20 10
-11 0 -20 5 -20 11 0 6 -8 8 -19 4 -11 -3 -22 -1 -26 5 -3 5 -15 10 -26 10
-10 0 -19 5 -19 10 0 6 -5 10 -11 10 -5 0 -7 -5 -4 -10z"/>
<path d="M6340 4453 c0 -7 -18 -16 -39 -19 -27 -4 -38 -11 -34 -19 3 -9 -2
-12 -15 -8 -11 3 -29 0 -39 -7 -14 -9 -15 -10 -1 -6 9 3 19 -2 22 -11 5 -12 1
-14 -15 -10 -19 5 -20 4 -5 -12 9 -10 13 -21 9 -25 -5 -4 -3 -7 2 -5 36 9 115
-44 115 -77 0 -7 7 -15 16 -18 14 -5 15 -4 5 8 -7 8 -16 28 -21 46 -8 27 -7
31 6 26 8 -3 13 -2 11 2 -7 12 9 45 24 48 8 2 26 6 40 10 24 5 27 3 32 -36 10
-76 71 -109 147 -79 28 11 55 61 46 85 -4 11 -2 15 8 11 9 -4 17 1 19 11 4 15
5 15 6 -1 0 -10 6 -15 11 -12 6 3 10 2 10 -4 0 -6 7 -8 15 -5 12 5 11 9 -8 23
-38 30 -115 63 -160 68 -23 4 -45 11 -49 17 -6 8 -8 8 -8 -1 0 -12 -80 -13
-80 -1 0 4 -12 2 -26 -4 -21 -10 -27 -9 -35 3 -6 9 -9 10 -9 2z"/>
<path d="M3170 4394 c0 -11 53 -84 62 -84 5 0 7 -4 4 -8 -6 -10 99 -114 130
-130 91 -47 167 -52 239 -18 47 22 142 103 132 112 -13 14 -129 46 -169 48
-26 2 -56 10 -65 18 -27 24 -82 50 -93 43 -5 -3 -11 -1 -14 3 -3 5 -24 9 -48
10 -24 1 -73 4 -110 7 -38 2 -68 2 -68 -1z"/>
<path d="M844 4254 c3 -8 2 -13 -3 -10 -5 3 -14 -16 -21 -42 -7 -26 -16 -51
-20 -57 -4 -5 -21 -57 -39 -115 -43 -137 -86 -258 -104 -295 -8 -16 -23 -47
-32 -67 -9 -21 -21 -36 -25 -33 -5 3 -11 -3 -13 -12 -3 -11 -5 -6 -7 12 -2 30
-2 30 -10 5 -5 -14 -21 -65 -36 -115 -15 -49 -32 -96 -37 -103 -5 -7 -8 -15
-5 -18 6 -6 68 75 68 89 0 4 5 5 10 2 6 -4 10 -3 9 2 -4 24 4 33 29 34 16 1
20 3 10 6 -10 2 -18 9 -18 14 0 6 5 7 11 3 8 -4 9 1 4 16 -5 15 -3 20 3 16 6
-3 13 3 17 14 3 11 11 20 16 20 6 0 17 7 25 15 18 17 34 20 34 5 0 -5 7 -10
15 -10 8 0 15 -5 15 -11 0 -8 5 -8 15 1 12 10 15 10 15 -2 0 -8 6 -15 13 -15
6 0 21 -4 31 -9 12 -4 17 -4 13 3 -7 10 25 14 33 4 11 -14 105 -32 108 -22 2
6 10 11 18 11 8 0 14 5 14 10 0 6 -8 10 -17 10 -15 0 -77 26 -145 61 -13 6
-18 5 -19 -3 0 -7 -7 1 -14 17 -8 17 -14 23 -15 15 0 -12 -3 -11 -11 3 -6 9
-14 15 -19 12 -4 -3 -10 2 -14 10 -3 8 -12 12 -21 9 -8 -3 -15 -1 -15 5 0 6 7
11 16 11 8 0 12 5 9 10 -4 6 7 9 29 8 27 -2 32 -6 24 -16 -9 -10 -13 -10 -19
0 -4 7 -11 9 -14 6 -10 -9 3 -28 19 -28 21 0 59 51 47 63 -23 23 -10 29 14 7
14 -13 28 -20 32 -16 4 4 0 12 -10 17 -9 6 -17 17 -17 25 0 9 5 12 13 8 6 -4
3 2 -7 14 -19 22 -19 22 4 47 14 15 18 25 11 25 -9 0 -11 8 -7 25 4 14 2 25
-4 25 -5 0 -10 -4 -10 -10 0 -5 -5 -10 -11 -10 -5 0 -9 8 -7 18 1 9 -1 23 -5
30 -5 7 -3 12 3 12 7 0 10 7 6 15 -8 22 28 2 48 -27 9 -12 16 -17 16 -11 0 6
-12 26 -27 44 l-28 33 28 -18 c34 -23 35 -15 2 18 -28 28 -32 58 -11 75 11 9
15 9 19 -1 3 -7 3 5 0 27 -4 22 -10 42 -15 43 -4 2 -8 8 -8 14 0 7 4 7 13 1 6
-6 21 -13 32 -16 15 -5 12 0 -10 19 -16 14 -23 23 -15 18 13 -7 13 -5 1 9 -17
21 -35 22 -27 1z"/>
<path d="M2669 4178 c-1 -13 -1 -26 0 -30 0 -5 -8 -8 -19 -8 -12 0 -20 -7 -20
-17 0 -10 -7 -31 -15 -47 -8 -15 -13 -32 -10 -36 3 -5 1 -11 -4 -14 -4 -3 -11
-20 -15 -37 -3 -17 -15 -43 -27 -57 -11 -15 -16 -28 -11 -30 6 -2 8 -13 5 -25
-4 -18 -3 -19 6 -7 8 11 11 12 11 2 0 -7 4 -11 9 -7 5 3 13 0 16 -6 4 -5 13
-8 21 -5 8 3 14 1 14 -5 0 -6 4 -8 9 -5 5 4 11 1 13 -6 2 -6 12 -9 21 -5 14 5
15 11 7 33 -12 30 -4 47 10 24 8 -12 10 -10 10 9 0 15 15 39 40 62 22 21 40
40 39 41 -4 7 15 55 27 69 13 14 12 18 -1 29 -17 14 -21 35 -3 24 7 -4 8 -3 4
4 -4 7 -13 12 -21 12 -7 0 -15 7 -18 14 -3 8 -20 22 -36 31 -28 14 -31 14 -31
0 0 -8 -5 -15 -11 -15 -5 0 -8 4 -4 9 3 5 1 12 -5 16 -6 3 -11 -4 -11 -17z"/>
<path d="M8723 3770 c-24 -10 -30 -25 -14 -34 4 -3 11 -20 15 -37 l6 -31 50
36 c51 37 66 44 55 26 -4 -6 6 -10 22 -9 25 0 26 1 8 9 -12 5 -14 9 -6 9 8 1
22 -5 30 -13 13 -12 23 -12 54 -3 44 14 48 32 10 41 -55 11 -208 16 -230 6z"/>
<path d="M6820 3290 c-14 -4 -51 -6 -83 -4 -31 2 -67 0 -78 -5 -20 -7 -20 -8
-5 -24 10 -9 14 -22 11 -27 -4 -6 15 -31 42 -56 26 -25 57 -53 68 -64 47 -43
100 -61 197 -64 110 -4 177 11 263 58 53 30 73 44 123 86 7 6 10 15 7 19 -2 5
9 14 25 21 62 26 52 35 -38 35 -48 1 -123 4 -167 9 -49 5 -105 4 -143 -3 -45
-7 -71 -7 -90 1 -41 16 -105 25 -132 18z"/>
<path d="M9211 2787 c0 -15 -11 -60 -23 -100 -30 -94 -31 -228 -3 -307 10 -30
20 -62 22 -70 1 -8 12 -55 23 -105 11 -49 23 -101 26 -115 2 -14 7 -32 11 -40
3 -8 7 -19 7 -25 5 -35 31 -132 38 -140 4 -5 8 -17 8 -27 0 -10 7 -35 17 -56
9 -20 17 -40 17 -44 1 -3 4 -10 9 -14 4 -4 7 -17 8 -28 2 -47 14 42 13 94 -1
30 -2 145 -3 255 -1 142 -5 195 -12 182 -5 -9 -7 -22 -4 -27 3 -6 -1 -10 -10
-10 -12 0 -15 6 -10 20 3 10 1 29 -5 41 -10 17 -9 23 1 30 10 6 7 9 -11 10
-14 0 -20 3 -14 5 13 5 7 44 -6 44 -5 0 -11 -8 -13 -17 -3 -11 -5 -7 -6 10 -1
15 4 27 12 27 8 0 7 4 -3 10 -13 8 -13 10 0 10 10 0 7 5 -8 16 -12 8 -22 21
-22 27 0 7 4 6 11 -3 9 -13 10 -12 5 3 -3 9 -9 24 -12 32 -4 10 0 15 10 15 9
0 16 5 16 11 0 6 -9 9 -20 6 -15 -4 -20 0 -20 15 0 10 4 16 10 13 6 -4 7 6 4
25 -4 19 -2 30 5 30 15 0 14 57 0 66 -9 5 -10 -1 -5 -20 4 -15 2 -26 -4 -26
-5 0 -10 3 -11 8 0 4 -3 19 -5 34 -2 14 0 29 4 32 5 3 7 17 4 32 -3 19 -7 22
-13 12 -6 -9 -9 -6 -9 10 0 13 4 20 10 17 6 -3 10 -1 10 4 0 15 -30 14 -31 -1
-1 -7 -5 3 -9 22 -7 32 -7 32 -9 7z"/>
</g>
</svg>
