<?xml version="1.0" standalone="no"?>
<!DOCTYPE svg PUBLIC "-//W3C//DTD SVG 20010904//EN"
 "http://www.w3.org/TR/2001/REC-SVG-20010904/DTD/svg10.dtd">
<svg version="1.0" xmlns="http://www.w3.org/2000/svg"
 width="450.000000pt" height="450.000000pt" viewBox="0 0 450.000000 450.000000"
 preserveAspectRatio="xMidYMid meet">
<metadata>
Created by potrace 1.15, written by Peter Selinger 2001-2017
</metadata>
<g transform="translate(0.000000,450.000000) scale(0.100000,-0.100000)"
fill="#000000" stroke="none">
<path d="M245 4493 c-11 -9 -55 -87 -55 -98 0 -3 10 -6 23 -5 41 4 54 1 38 -9
-9 -6 -10 -11 -3 -15 6 -4 8 -14 5 -23 -5 -12 -2 -15 9 -10 9 3 19 0 22 -8 3
-9 0 -12 -9 -9 -11 4 -12 -1 -6 -22 7 -27 31 -46 31 -25 0 6 -4 11 -9 11 -12
0 16 57 32 67 19 12 47 14 47 3 0 -5 7 -6 17 -3 9 4 14 2 10 -3 -3 -6 -2 -16
4 -24 6 -11 9 -6 9 18 0 17 -4 32 -8 32 -10 0 -10 4 -13 72 -1 26 -7 49 -13
51 -21 7 -121 7 -131 0z"/>
<path d="M2720 4480 c-7 -11 -9 -12 -10 -1 0 19 -46 6 -95 -28 -37 -25 -87
-44 -195 -71 -25 -7 -60 -18 -77 -26 -19 -8 -33 -9 -33 -4 0 16 -14 12 -38
-10 -18 -17 -20 -25 -11 -42 9 -16 13 -18 19 -7 7 10 11 10 24 0 20 -16 122
-26 131 -12 3 6 11 11 16 11 6 0 7 -4 4 -10 -8 -14 -2 -13 31 5 16 8 37 15 46
15 9 0 19 4 23 10 3 5 12 7 19 4 7 -3 16 2 20 11 3 9 10 13 16 10 5 -3 10 -2
10 2 0 5 15 17 33 28 42 25 58 41 49 50 -4 5 -2 5 4 2 6 -3 20 1 30 11 10 10
31 27 47 39 l27 21 -41 4 c-29 3 -43 -1 -49 -12z"/>
<path d="M4323 4493 c-29 -4 -31 -6 -20 -24 8 -13 9 -22 2 -27 -16 -11 -15
-44 1 -38 8 3 14 1 14 -4 0 -6 -6 -10 -12 -10 -9 0 -10 -3 -2 -8 16 -10 24
-78 11 -91 -8 -8 -8 -11 2 -11 11 0 11 -3 0 -17 -8 -9 -12 -19 -11 -22 12 -21
-33 -231 -49 -231 -8 0 -16 -33 -24 -103 -4 -37 -24 -67 -48 -71 -6 -1 -18 -5
-25 -9 -7 -5 -36 -10 -65 -12 -99 -8 -140 -17 -159 -35 -29 -26 -16 -38 39
-35 27 1 56 -2 65 -6 10 -6 18 -5 20 2 2 5 14 10 28 11 14 1 30 5 37 10 6 5
14 5 17 -1 5 -7 15 -7 31 -1 19 7 25 6 25 -4 0 -23 -30 -86 -41 -86 -5 0 -8 4
-5 9 3 5 -2 8 -12 7 -9 0 -16 4 -15 10 1 8 -6 10 -19 6 -15 -4 -19 -2 -13 7 5
9 2 12 -11 9 -11 -3 -32 2 -47 9 -18 9 -33 11 -40 5 -7 -5 -37 -12 -67 -16
-54 -7 -84 -21 -75 -36 3 -4 -11 -20 -31 -35 l-35 -27 22 -21 c15 -14 24 -17
27 -9 2 7 8 12 13 12 4 0 5 -8 2 -17 -5 -12 -2 -15 10 -10 9 3 17 2 17 -4 0
-5 11 -7 27 -3 23 6 25 5 19 -12 -6 -15 -4 -16 5 -7 6 6 18 9 25 6 8 -3 14 -1
14 5 0 5 11 12 24 16 13 3 34 21 46 39 l24 34 23 -27 c20 -24 22 -32 12 -54
-7 -14 -16 -23 -20 -20 -5 3 -9 0 -9 -6 0 -6 -3 -9 -7 -7 -5 3 -18 1 -30 -4
-30 -11 -20 -43 12 -35 12 3 31 -1 42 -9 11 -8 24 -11 28 -7 5 4 5 1 1 -6 -4
-7 -2 -36 3 -65 18 -85 22 -127 11 -127 -6 0 -10 -9 -10 -20 0 -21 15 -27 25
-10 3 6 1 10 -6 10 -7 0 -5 8 6 20 10 11 24 20 32 20 7 0 13 5 13 10 0 6 7 10
15 10 8 0 15 4 15 10 0 5 -8 7 -17 3 -12 -3 -10 0 5 11 12 10 20 22 17 27 -4
5 -1 9 5 9 6 0 9 4 5 9 -3 6 5 19 17 30 12 12 17 21 11 21 -6 0 -9 14 -8 33 4
42 3 41 20 27 9 -7 15 -8 15 -2 0 5 -7 12 -14 15 -12 5 -13 13 -6 38 5 17 12
34 16 38 4 3 3 -4 0 -16 -5 -14 -3 -23 3 -23 6 0 11 9 11 19 0 11 4 22 8 25 5
3 7 18 4 35 -2 16 1 37 7 48 10 15 11 12 6 -17 l-6 -35 21 43 c12 23 24 40 29
38 4 -3 8 1 8 9 0 8 -9 15 -19 15 -12 0 -16 -4 -12 -12 4 -7 3 -8 -4 -4 -7 4
-12 2 -12 -3 0 -6 -5 -11 -11 -11 -8 0 -9 4 0 13 6 8 8 17 4 20 -3 4 3 7 14 7
17 0 23 10 33 53 20 94 21 97 9 97 -7 0 -10 3 -7 6 4 3 15 1 27 -5 13 -7 22
-8 26 -1 3 5 -1 10 -10 10 -12 0 -9 7 11 25 15 14 24 28 20 32 -4 4 -11 1 -15
-6 -6 -9 -11 -10 -15 -2 -4 6 -3 11 3 11 6 0 19 10 30 22 17 17 18 24 8 37
-10 12 -9 14 3 9 17 -6 18 5 26 290 l5 182 -68 -2 c-37 0 -82 -3 -100 -5z"/>
<path d="M2587 4281 c-15 -9 -25 -19 -23 -22 2 -2 -5 -5 -17 -5 -46 -4 -90
-14 -103 -25 -8 -6 -14 -7 -14 -2 0 5 -23 10 -52 11 -30 0 -55 6 -59 14 -7 10
-9 10 -9 -1 0 -11 -5 -10 -20 4 -15 14 -23 15 -34 6 -14 -11 -31 -74 -27 -98
1 -6 -3 -14 -9 -18 -5 -3 -10 -17 -10 -29 0 -13 -16 -71 -35 -129 -37 -112
-38 -152 -4 -121 11 9 19 12 19 7 0 -6 -7 -14 -16 -17 -8 -3 -12 -11 -8 -17 3
-6 -5 -3 -20 6 -31 20 -33 16 -7 -13 10 -12 22 -18 26 -14 5 4 5 -1 2 -11 -4
-10 -7 -21 -7 -23 0 -3 -4 -3 -9 0 -5 3 -12 -1 -15 -10 -3 -8 -2 -12 4 -9 5 3
7 -1 4 -9 -3 -8 -12 -12 -20 -9 -9 3 -14 -1 -14 -12 0 -9 4 -14 9 -11 5 4 7
-3 4 -14 -3 -11 -9 -23 -14 -26 -5 -3 -6 2 -3 10 3 9 2 16 -3 16 -15 0 -33
-113 -19 -122 8 -6 7 -8 -2 -8 -7 0 -10 -4 -7 -10 4 -6 -6 -10 -22 -11 -25 0
-26 -1 -8 -9 14 -6 16 -9 5 -10 -8 -2 -18 -2 -22 -1 -5 0 -8 -4 -8 -9 0 -6 -5
-10 -12 -10 -9 0 -9 3 0 12 17 17 15 29 -3 22 -8 -4 -15 -12 -15 -19 0 -8 -9
-17 -20 -20 -11 -3 -21 -11 -21 -16 -1 -5 -3 -13 -4 -19 -1 -5 -3 -13 -4 -17
-1 -5 -5 -1 -11 7 -7 12 -13 9 -34 -15 -23 -27 -32 -30 -83 -31 -32 0 -64 4
-70 9 -7 5 -20 7 -28 3 -8 -3 -15 -1 -15 4 0 5 -11 7 -24 4 -20 -3 -23 0 -21
24 1 15 3 31 3 35 1 4 18 15 37 23 19 8 35 18 35 23 0 6 9 13 20 16 11 4 17
11 14 17 -4 6 -1 9 7 6 13 -4 39 13 39 26 0 23 -156 -20 -214 -57 -103 -68
-189 -392 -141 -532 10 -27 26 -62 37 -77 20 -29 17 -48 -8 -48 -10 0 -12 -5
-8 -12 5 -9 2 -9 -9 1 -9 7 -17 9 -17 3 0 -5 -7 -13 -16 -16 -8 -3 -13 -2 -10
2 2 4 -9 7 -24 7 -15 0 -26 -3 -24 -6 2 -4 -6 -15 -18 -25 -12 -11 -18 -13
-14 -6 4 7 1 12 -9 12 -9 0 -13 -4 -10 -10 3 -5 2 -10 -3 -10 -6 0 -13 8 -16
17 -6 15 -8 15 -16 3 -7 -10 -10 -11 -10 -2 0 6 -7 12 -16 12 -9 0 -27 9 -41
20 -26 21 -48 27 -39 11 3 -5 -1 -14 -9 -21 -7 -6 -11 -18 -8 -27 3 -8 0 -18
-7 -23 -9 -6 -9 -12 0 -30 8 -15 8 -20 1 -16 -7 5 -11 -3 -11 -19 0 -15 4 -24
10 -20 6 3 10 0 10 -9 0 -8 6 -17 13 -20 6 -4 2 -4 -11 -2 -19 4 -22 1 -16
-16 4 -15 3 -19 -7 -13 -8 3 -5 -2 7 -12 19 -17 20 -21 6 -41 -13 -20 -13 -22
4 -23 11 0 14 -3 8 -5 -6 -3 -9 -15 -7 -28 3 -13 0 -27 -6 -30 -6 -4 -11 -13
-11 -19 0 -7 4 -6 10 3 8 12 10 10 11 -10 1 -14 2 -33 1 -42 -1 -10 3 -18 8
-18 27 0 -20 -94 -122 -248 -26 -40 -48 -76 -48 -81 0 -4 -7 -22 -16 -40 -24
-47 -43 -138 -44 -201 0 -61 11 -109 42 -178 12 -26 22 -49 23 -52 0 -3 7 -16
14 -29 23 -42 18 -86 -17 -135 -18 -25 -55 -92 -82 -148 -27 -57 -50 -95 -50
-86 0 25 39 126 68 176 17 31 22 46 14 54 -17 17 -41 2 -60 -39 -9 -21 -20
-39 -24 -41 -5 -2 -8 -15 -8 -28 0 -14 4 -23 8 -20 5 3 6 -8 4 -24 -2 -17 -8
-27 -13 -25 -7 5 -1 -65 7 -74 2 -2 -3 -13 -13 -23 -9 -11 -11 -18 -5 -18 8 0
12 -18 12 -47 0 -47 13 -101 55 -226 13 -40 18 -67 12 -67 -8 0 -8 -3 0 -11 5
-5 8 -20 6 -33 l-5 -23 -26 24 c-19 18 -27 20 -34 11 -5 -9 -8 -8 -8 6 0 13
-5 16 -17 12 -10 -4 -14 -4 -11 0 4 3 -4 18 -18 33 -20 21 -26 23 -33 12 -8
-12 -12 -12 -25 2 -9 8 -16 23 -16 32 0 9 -11 26 -25 39 -14 13 -25 29 -25 35
0 42 -72 -92 -74 -137 -1 -19 -5 -28 -14 -25 -6 3 -12 1 -12 -5 0 -5 -18 -30
-40 -55 -22 -25 -40 -53 -40 -62 0 -9 -5 -25 -10 -36 -15 -27 -50 -171 -44
-180 2 -4 0 -10 -6 -14 -5 -3 -10 2 -11 12 -1 30 -29 -70 -29 -104 0 -18 19
-85 43 -148 31 -86 46 -114 57 -110 8 2 582 169 1275 370 693 201 1290 375
1326 385 l66 20 6 78 c3 46 12 93 22 113 43 82 295 268 382 282 10 1 23 6 29
9 24 16 144 31 219 28 28 -2 62 -3 77 -4 14 0 24 -5 20 -10 -3 -5 2 -7 11 -3
9 3 34 0 56 -8 22 -7 49 -11 60 -8 13 3 21 1 21 -7 0 -7 7 -10 16 -6 10 4 13
2 8 -6 -5 -8 0 -9 16 -5 31 8 68 -11 49 -25 -11 -8 -11 -9 2 -5 21 7 64 -31
82 -73 l15 -35 1 33 c1 18 -5 45 -12 60 -8 15 -20 50 -27 77 -7 28 -26 69 -42
93 -15 24 -28 46 -28 49 0 3 -11 21 -25 38 -22 30 -24 39 -20 116 4 69 1 92
-16 129 -11 25 -27 86 -35 135 -20 124 -73 316 -92 339 -10 10 -45 38 -79 63
-54 38 -67 54 -99 121 -47 100 -54 117 -73 176 -12 35 -29 60 -63 88 l-46 40
-106 -53 c-58 -29 -106 -56 -106 -61 0 -4 -7 -8 -15 -8 -8 0 -31 -16 -51 -35
-20 -20 -39 -34 -41 -31 -3 3 -12 -1 -19 -9 -8 -8 -36 -17 -62 -20 -26 -4 -57
-11 -69 -17 -16 -8 -29 -7 -50 4 -16 8 -42 13 -57 11 -15 -2 -34 1 -42 8 -12
10 -18 8 -30 -10 -9 -12 -20 -19 -25 -16 -5 4 -9 2 -9 -4 0 -5 8 -12 18 -14
13 -4 12 -5 -5 -6 -13 -1 -25 -11 -33 -28 -24 -57 -35 -73 -49 -68 -11 4 -12
3 -1 -10 10 -12 10 -15 -3 -15 -9 0 -20 -6 -24 -13 -10 -16 -83 -51 -91 -43
-3 3 -12 0 -21 -8 -9 -8 -27 -16 -41 -19 -18 -3 -15 -5 13 -6 29 -1 37 3 38
17 0 10 3 12 6 4 3 -9 18 -11 53 -6 49 6 49 6 44 -21 -3 -19 -1 -24 7 -19 8 4
9 3 5 -4 -4 -6 -13 -9 -21 -5 -10 3 -13 1 -10 -9 3 -8 -9 -21 -32 -33 -21 -11
-40 -22 -43 -26 -3 -3 -33 -23 -68 -44 -35 -21 -95 -66 -135 -100 -159 -135
-308 -199 -483 -210 -61 -4 -74 4 -121 73 -8 12 -20 22 -25 22 -16 0 -37 26
-44 56 -4 16 -10 34 -14 39 -12 17 -31 117 -38 200 -8 94 2 248 18 253 5 2 10
12 10 22 0 47 72 213 109 251 34 35 53 62 56 80 2 11 12 32 23 47 10 15 26 47
35 72 10 25 30 60 45 79 24 28 36 34 74 36 31 1 52 9 66 23 12 12 27 22 33 22
5 0 8 4 5 8 -3 5 8 22 24 37 17 16 30 33 30 38 0 4 7 15 15 23 8 8 19 23 24
32 16 29 26 4 14 -38 -7 -26 -7 -40 0 -40 5 0 -2 -9 -17 -21 -14 -11 -26 -24
-26 -29 0 -5 -28 -53 -62 -107 -66 -105 -87 -153 -118 -266 -46 -175 -52 -316
-14 -363 8 -10 12 -13 8 -5 -4 8 -6 32 -6 53 1 26 -2 37 -9 32 -8 -4 -8 0 0
15 7 11 12 38 13 58 0 21 4 43 8 48 4 6 13 39 19 74 21 107 67 244 116 342 26
52 53 97 59 101 6 4 7 8 1 8 -5 0 3 11 18 25 15 14 27 29 27 33 0 12 43 12 57
0 10 -8 13 -7 13 4 0 8 -4 18 -8 23 -8 9 -18 56 -38 176 -7 46 10 190 36 294
23 94 25 115 7 115 -7 0 -25 12 -39 28 -19 21 -25 36 -23 67 1 22 4 82 6 133
3 86 9 106 24 82 10 -17 38 -12 31 6 -4 12 -1 14 14 9 11 -4 20 -2 20 4 0 6
-7 11 -15 11 -8 0 -15 5 -15 11 0 5 5 7 12 3 7 -5 9 -2 5 9 -4 11 3 18 23 25
15 6 31 8 33 5 9 -8 37 54 29 62 -4 5 -2 5 4 2 16 -9 40 21 28 33 -6 6 -20 2
-37 -9z"/>
<path d="M3253 4194 c1 -16 7 -29 12 -28 6 0 19 -10 29 -24 10 -13 45 -50 76
-82 31 -32 60 -65 63 -74 4 -9 13 -16 22 -16 8 0 15 -6 15 -12 1 -19 42 -46
70 -44 28 1 51 56 23 56 -9 0 -13 6 -9 15 3 9 0 15 -9 15 -8 0 -15 4 -15 8 0
4 -18 27 -40 50 -22 22 -40 39 -40 36 0 -3 -18 14 -40 36 -24 25 -45 38 -53
34 -6 -4 -9 -4 -5 1 8 8 -26 37 -47 42 -5 1 -20 5 -32 9 -19 5 -22 3 -20 -22z"/>
<path d="M3080 4063 c0 -6 -12 -11 -28 -11 -15 1 -49 -9 -76 -21 -47 -20 -48
-22 -31 -40 9 -11 14 -24 11 -29 -6 -10 80 -10 90 1 4 4 18 7 31 7 19 0 23 -5
23 -32 1 -45 30 -93 55 -92 32 1 57 15 51 30 -7 18 3 44 16 44 6 0 7 -11 4
-25 -5 -19 -3 -23 9 -18 9 3 19 19 22 36 l6 31 32 -37 c28 -32 34 -35 45 -22
18 22 29 19 36 -10 5 -20 9 -23 20 -14 20 16 17 36 -8 72 -27 39 -59 66 -75
67 -7 0 -13 5 -13 11 0 5 -5 7 -10 4 -6 -4 -17 -1 -25 5 -8 7 -23 10 -33 8
-19 -5 -42 13 -42 34 0 8 -5 6 -11 -5 -8 -13 -14 -15 -30 -7 -12 7 -19 7 -19
1 0 -12 -32 -2 -42 13 -5 8 -8 7 -8 -1z"/>
<path d="M720 3825 c0 -3 -11 -94 -25 -202 -28 -218 -49 -343 -70 -415 -8 -27
-12 -48 -10 -48 2 0 -3 -16 -11 -35 -7 -19 -14 -42 -14 -52 1 -10 12 18 26 62
14 44 30 88 35 98 5 10 7 23 3 29 -4 7 -3 8 4 4 8 -5 12 4 12 29 0 20 7 47 16
60 13 20 14 28 4 40 -11 13 -10 14 4 9 19 -7 21 6 4 25 -11 11 -10 13 2 9 12
-4 16 3 16 33 1 23 -3 36 -8 33 -6 -4 -5 3 2 15 13 25 10 82 -5 93 -6 4 -2 8
9 8 15 0 16 3 6 15 -9 11 -10 18 -1 29 6 7 13 35 15 62 2 27 7 57 11 67 4 10
3 17 -5 17 -6 0 -8 5 -5 10 3 6 1 10 -4 10 -6 0 -11 -2 -11 -5z"/>
<path d="M410 3413 c0 -11 -4 -23 -8 -28 -4 -6 -23 -46 -41 -90 -18 -44 -37
-89 -41 -100 -16 -39 -52 -298 -53 -386 0 -27 6 -60 13 -73 7 -14 10 -33 6
-43 -4 -10 -7 -20 -7 -23 0 -3 -7 -15 -15 -28 -13 -20 -22 -58 -38 -157 -3
-16 -12 -109 -21 -205 -8 -96 -20 -193 -25 -215 -5 -22 -12 -58 -15 -80 -6
-37 -5 -38 8 -20 18 24 37 91 29 99 -3 3 0 6 7 6 6 0 11 6 10 13 -5 24 14 132
29 167 8 19 17 51 19 70 3 19 11 50 19 69 8 18 11 37 8 42 -3 5 4 23 16 39 12
17 24 41 26 53 2 12 8 51 14 87 6 38 16 68 25 73 8 4 15 13 15 18 0 6 -6 7
-12 3 -7 -4 -3 3 10 15 27 26 28 32 5 24 -14 -5 -13 0 6 20 13 14 20 31 16 37
-4 7 -2 15 4 19 11 7 15 24 27 120 4 32 2 41 -6 36 -9 -5 -10 -1 -4 16 4 13 7
33 6 43 0 11 3 27 9 38 5 10 6 18 1 18 -4 0 -7 57 -6 128 1 70 -3 132 -8 139
-5 7 -8 24 -6 39 2 16 -2 29 -9 31 -8 3 -13 -4 -13 -14z"/>
<path d="M2950 3045 c0 -12 53 -85 62 -85 5 0 7 -4 4 -8 -6 -10 99 -114 130
-130 45 -24 111 -42 149 -42 53 0 130 38 184 91 l44 43 -24 10 c-13 6 -27 15
-31 21 -4 5 -8 7 -8 3 0 -4 -15 -2 -32 3 -18 6 -54 11 -80 13 -26 1 -56 10
-65 18 -27 24 -82 50 -93 43 -5 -3 -11 -1 -14 3 -3 5 -20 9 -38 10 -18 1 -68
4 -110 7 -43 3 -78 3 -78 0z"/>
<path d="M639 2978 c-6 -26 -6 -37 2 -32 5 3 9 -2 9 -10 0 -9 -7 -16 -16 -16
-10 0 -14 -5 -10 -16 3 -8 2 -13 -3 -10 -5 3 -14 -16 -21 -42 -7 -26 -16 -51
-20 -57 -4 -5 -21 -57 -39 -115 -43 -137 -86 -258 -104 -295 -8 -16 -23 -47
-32 -67 -9 -21 -21 -36 -25 -33 -5 3 -11 -1 -13 -7 -3 -7 -6 -2 -7 12 l-2 25
-8 -25 c-5 -14 -21 -65 -36 -115 -15 -49 -32 -93 -37 -96 -5 -4 -8 -12 -6 -18
2 -6 24 12 49 41 24 29 39 48 32 44 -11 -7 -11 -4 0 13 7 12 24 22 38 22 17 1
19 3 8 6 -10 2 -18 9 -18 14 0 6 5 7 11 3 8 -4 9 1 4 16 -5 15 -3 20 3 16 6
-3 13 3 17 14 3 11 13 20 21 20 8 0 14 4 14 9 0 19 32 20 52 1 17 -16 24 -17
37 -7 12 10 14 9 8 -5 -5 -13 -1 -18 12 -18 11 0 27 -3 37 -7 10 -4 15 -2 11
3 -3 6 3 11 14 11 10 1 19 -1 19 -5 0 -9 102 -34 153 -37 20 -1 37 2 37 7 0 5
-4 6 -10 3 -5 -3 -10 -1 -10 4 0 6 -7 11 -15 11 -8 0 -15 5 -15 10 0 6 -7 10
-16 10 -13 0 -100 36 -146 60 -11 6 -18 5 -21 -3 -2 -7 -9 4 -15 23 -6 22 -11
27 -11 15 -2 -19 -2 -19 -12 -2 -6 9 -14 15 -19 12 -4 -3 -13 9 -19 25 -8 26
-8 30 7 30 9 0 24 -5 32 -11 12 -8 10 -9 -7 -4 -17 5 -23 2 -23 -9 0 -23 37
-20 52 3 9 15 15 17 25 9 23 -19 26 0 4 23 -30 32 -26 47 4 19 14 -13 28 -20
32 -16 5 4 0 13 -10 20 -19 15 -24 41 -4 30 6 -4 3 3 -7 15 -20 22 -20 22 6
46 14 13 28 21 31 18 3 -3 3 6 -1 19 -5 18 -7 19 -10 6 -7 -33 -19 -18 -18 21
1 43 -10 63 -23 42 -6 -9 -11 -10 -15 -2 -4 6 -2 11 4 11 7 0 9 7 6 16 -4 10
-2 13 7 8 26 -15 46 -37 41 -45 -3 -5 -1 -9 5 -9 13 0 11 63 -3 73 -8 6 -7 10
2 14 6 2 12 14 11 26 0 12 -3 16 -6 9 -4 -10 -9 -9 -19 5 -13 16 -14 15 -8
-12 4 -23 3 -26 -5 -15 -14 20 -14 47 0 56 6 3 15 0 20 -7 6 -9 7 3 3 31 -4
25 -11 47 -16 48 -4 2 -8 8 -8 14 0 7 4 7 13 1 6 -6 21 -13 32 -16 15 -5 12
-1 -9 17 -20 17 -25 26 -16 31 9 6 11 4 5 -5 -5 -8 -4 -11 2 -7 15 9 13 59 -3
75 -8 7 -14 12 -15 10z"/>
<path d="M2449 2841 c-1 -3 -2 -10 -4 -16 -1 -5 -3 -16 -3 -22 -1 -7 -9 -13
-17 -13 -8 0 -17 -14 -21 -35 -3 -19 -9 -35 -13 -35 -3 0 -12 -26 -20 -57 -7
-32 -22 -69 -33 -82 -11 -14 -15 -27 -10 -29 6 -2 8 -13 5 -25 -4 -18 -3 -19
6 -7 9 12 11 13 11 1 0 -8 3 -11 7 -8 3 4 15 0 25 -10 14 -13 18 -13 18 -2 0
11 2 11 10 -1 5 -8 10 -10 10 -5 0 6 4 4 9 -4 5 -8 16 -11 25 -8 13 5 14 11 6
33 -12 30 -4 47 10 24 8 -12 10 -11 10 6 0 12 18 40 40 63 22 22 39 42 39 44
-4 6 15 54 27 68 13 14 12 18 -1 29 -17 14 -21 35 -3 24 7 -4 8 -3 4 4 -4 7
-12 12 -17 12 -6 0 -20 11 -32 25 -20 23 -85 42 -88 26z"/>
</g>
</svg>
