<?xml version="1.0" standalone="no"?>
<!DOCTYPE svg PUBLIC "-//W3C//DTD SVG 20010904//EN"
 "http://www.w3.org/TR/2001/REC-SVG-20010904/DTD/svg10.dtd">
<svg version="1.0" xmlns="http://www.w3.org/2000/svg"
 width="736.000000pt" height="736.000000pt" viewBox="0 0 736.000000 736.000000"
 preserveAspectRatio="xMidYMid meet">
<metadata>
Created by potrace 1.15, written by Peter Selinger 2001-2017
</metadata>
<g transform="translate(0.000000,736.000000) scale(0.100000,-0.100000)"
fill="#FFD700" stroke="none">
<path d="M1524 6614 c49 -62 115 -163 161 -247 145 -263 180 -313 304 -437 66
-65 170 -154 240 -205 332 -240 412 -304 518 -410 95 -97 117 -125 151 -196
53 -110 66 -174 60 -290 -10 -185 -111 -462 -368 -1009 -88 -187 -160 -343
-160 -347 0 -9 168 306 310 582 144 277 263 580 285 720 10 68 -12 144 -89
305 -41 85 -77 165 -81 177 -13 48 -107 173 -190 256 -48 48 -140 126 -203
175 -433 330 -477 370 -576 522 -35 52 -89 144 -122 203 -87 160 -161 236
-276 286 l-47 20 83 -105z"/>
<path d="M1130 5720 c0 -7 11 -32 25 -56 19 -32 39 -50 82 -71 52 -25 71 -28
178 -32 141 -5 122 -18 -40 -27 -85 -5 -109 -3 -160 14 -56 19 -58 19 -35 1
47 -35 119 -53 224 -53 74 0 92 -2 70 -9 -37 -11 -220 -14 -259 -4 l-30 8 25
-21 c47 -37 118 -54 237 -54 121 -1 120 -6 -11 -32 -67 -13 -94 -14 -128 -6
-43 11 -43 11 -20 -8 31 -26 111 -33 216 -20 49 6 90 9 93 6 8 -8 -107 -46
-174 -56 -37 -6 -69 -13 -71 -15 -7 -7 134 -19 211 -19 45 1 73 -3 64 -7 -16
-9 -129 -27 -197 -31 -43 -3 -42 -4 29 -17 83 -15 162 -10 231 14 l44 16 -25
-27 c-20 -23 -138 -85 -203 -108 -36 -12 -11 -14 74 -5 75 7 122 18 209 45 72
22 -67 -75 -153 -107 l-51 -19 75 5 c42 2 95 11 119 20 24 8 46 13 48 11 2 -2
-28 -32 -67 -66 -38 -35 -69 -65 -67 -67 2 -2 46 13 98 32 52 19 96 35 98 35
7 0 -9 -112 -20 -131 -20 -38 13 -19 71 41 l57 60 7 -51 c4 -27 4 -66 0 -86
-11 -60 13 -30 26 32 6 30 13 55 15 55 6 0 24 -102 27 -148 3 -68 17 -34 24
62 l7 89 24 -29 c13 -16 31 -49 40 -74 16 -41 18 -42 24 -20 4 14 8 45 9 70 2
49 8 41 29 -35 6 -22 17 -49 25 -60 14 -18 15 -14 16 57 0 42 5 80 10 83 6 3
10 -2 10 -12 0 -24 49 -123 60 -123 5 0 6 25 3 55 -3 30 -3 55 0 55 4 0 16
-22 28 -50 23 -55 58 -95 39 -46 -5 15 -10 57 -10 94 l1 67 19 -54 c17 -48 64
-131 74 -131 2 0 -1 17 -7 39 -7 26 -7 50 -1 72 l10 34 21 -40 c12 -22 34 -51
50 -65 15 -14 22 -18 16 -10 -7 8 -13 31 -13 51 0 30 7 44 35 70 40 38 43 49
16 49 -28 0 -76 44 -66 60 13 21 119 6 186 -27 46 -23 59 -26 59 -15 0 26 -84
96 -146 121 -54 22 -78 25 -284 31 -242 7 -281 15 -404 77 -131 67 -185 125
-286 313 -34 63 -68 121 -75 129 -12 12 -22 11 -72 -12 -165 -73 -282 -57
-377 55 -20 23 -36 36 -36 28z"/>
<path d="M3999 4870 c-53 -9 -133 -42 -143 -59 -5 -8 14 -11 63 -11 85 0 189
-15 507 -74 406 -75 521 -80 854 -36 85 12 220 24 300 27 129 5 162 2 300 -22
256 -45 314 -54 318 -50 2 2 -16 9 -39 15 -24 6 -116 33 -204 60 -341 102
-457 114 -815 80 -317 -30 -437 -25 -714 29 -219 43 -351 55 -427 41z"/>
<path d="M4098 4382 c94 -84 115 -135 62 -153 -55 -20 -26 -38 60 -39 59 -1
37 -14 -50 -30 -125 -24 -121 -32 17 -32 90 1 96 0 73 -13 -14 -8 -56 -25 -94
-36 -63 -20 -68 -23 -45 -32 13 -5 70 -7 127 -4 l104 5 -38 -26 c-21 -14 -78
-40 -128 -59 l-91 -33 90 3 c62 3 113 12 162 29 40 13 68 19 63 13 -8 -10
-119 -64 -210 -103 l-25 -11 25 0 c37 -1 137 26 199 54 29 14 56 25 59 25 13
0 -76 -84 -120 -112 -88 -57 -51 -48 97 23 54 26 101 46 103 44 6 -6 -54 -111
-95 -167 -19 -27 -31 -48 -27 -48 11 0 94 70 142 120 l43 45 -37 -75 c-20 -41
-45 -88 -56 -103 -28 -39 -16 -45 15 -7 14 16 27 30 30 30 2 0 2 -26 0 -57
l-5 -58 30 60 c16 33 36 66 45 73 14 12 17 10 23 -13 4 -15 4 -59 2 -98 l-5
-72 24 53 c13 30 32 86 43 124 11 39 22 73 25 76 5 6 9 -76 7 -148 -1 -34 0
-40 7 -25 5 11 10 42 10 70 1 35 4 46 12 38 6 -6 12 -52 12 -106 1 -53 5 -93
9 -89 9 9 38 143 39 180 l1 27 8 -28 c5 -15 12 -73 16 -128 8 -119 22 -118 31
1 l6 84 17 -72 c19 -80 36 -110 26 -47 -6 45 7 208 16 185 3 -8 13 -51 23 -95
25 -113 34 -124 35 -38 0 107 9 116 35 35 20 -62 59 -142 71 -142 2 0 -1 12
-6 26 -13 32 -13 174 -1 174 5 0 12 -18 16 -40 4 -23 18 -54 32 -70 31 -37 52
-40 24 -4 -15 19 -21 41 -21 78 l1 51 34 -70 c36 -74 46 -88 85 -120 l24 -20
-17 27 c-20 33 -47 130 -47 173 0 27 3 23 29 -30 16 -33 45 -76 65 -94 42 -41
46 -35 11 18 -16 23 -30 64 -36 105 -11 68 -7 108 6 71 35 -94 78 -156 128
-182 l31 -16 -19 29 c-36 54 -46 84 -52 141 l-5 58 30 -50 c28 -47 92 -117 92
-101 0 4 -7 20 -14 35 -18 34 -32 131 -20 131 5 0 18 -16 29 -36 20 -37 69
-84 88 -84 6 0 1 10 -10 23 -27 29 -43 61 -43 85 0 15 10 10 46 -25 54 -50 75
-56 44 -14 -20 29 -53 111 -47 117 1 2 18 -18 37 -44 19 -25 49 -54 66 -64 32
-19 157 -41 148 -26 -3 4 -12 8 -20 8 -33 0 -114 52 -162 105 -63 69 -68 102
-22 160 17 21 29 40 27 41 -6 7 -135 -18 -267 -51 -227 -56 -358 -71 -485 -55
-255 31 -373 92 -599 310 -94 90 -154 139 -189 156 -78 36 -88 29 -29 -24z"/>
<path d="M1224 3335 c3 -16 19 -118 36 -225 66 -423 192 -1098 245 -1310 99
-393 225 -658 389 -814 165 -157 353 -262 570 -319 109 -28 357 -30 531 -3
226 34 710 171 1039 293 321 118 928 405 1074 506 43 29 109 73 147 96 39 24
63 41 54 38 -65 -22 -252 -105 -394 -175 -213 -105 -350 -168 -534 -243 -142
-59 -463 -178 -531 -197 -19 -5 -127 -39 -240 -75 -509 -162 -650 -192 -910
-192 -201 0 -248 9 -396 79 -272 129 -487 345 -619 622 -105 222 -159 424
-254 964 -73 411 -190 964 -208 980 -3 3 -3 -8 1 -25z"/>
<path d="M2180 3267 c0 -4 18 -46 39 -94 43 -98 48 -112 92 -268 36 -129 62
-178 125 -234 61 -53 148 -81 254 -81 76 0 99 5 335 77 85 26 186 21 299 -15
114 -37 162 -40 215 -13 38 20 107 89 97 98 -3 3 -17 -9 -32 -26 -36 -44 -94
-71 -149 -71 -26 0 -83 14 -133 32 -125 45 -236 45 -422 -2 -226 -56 -366 -42
-460 46 -59 55 -75 87 -107 217 -17 73 -42 134 -85 217 -61 117 -68 129 -68
117z"/>
<path d="M1759 2612 c16 -30 147 -149 223 -202 52 -37 64 -50 55 -59 -9 -10
-6 -11 14 -6 20 5 34 -2 69 -33 l44 -39 -27 -32 c-33 -39 -36 -63 -4 -33 40
38 61 33 116 -32 l50 -59 -40 -47 c-52 -62 -50 -72 6 -21 24 22 48 41 51 41 4
0 26 -18 50 -40 52 -48 163 -104 239 -121 49 -11 55 -15 56 -38 l0 -26 10 24
c7 18 14 22 34 17 14 -4 46 -9 73 -12 26 -4 53 -13 60 -22 7 -10 12 -11 12 -4
0 9 13 10 43 6 90 -12 90 -12 83 -47 l-5 -32 17 30 c14 25 22 30 51 27 32 -3
33 -5 27 -35 -3 -18 -16 -45 -28 -62 l-21 -30 27 24 c14 14 32 42 38 64 l12
39 85 -7 c47 -4 163 -22 256 -40 177 -35 353 -60 362 -52 6 6 -3 9 -172 47
-77 17 -205 47 -285 65 -279 66 -466 105 -598 125 -143 21 -260 56 -320 94
-20 13 -73 61 -117 107 -151 157 -182 183 -283 237 -59 32 -135 84 -187 129
-47 41 -82 66 -76 55z"/>
<path d="M2100 2555 c0 -2 21 -17 47 -32 113 -66 203 -143 247 -211 79 -120
107 -136 235 -126 99 7 146 -3 311 -65 58 -21 114 -42 125 -46 36 -12 -79 48
-150 77 -129 54 -161 61 -265 54 -128 -9 -164 8 -236 114 -57 82 -98 118 -222
191 -82 48 -92 53 -92 44z"/>
<path d="M1691 2434 c-1 -21 69 -266 95 -332 80 -199 212 -345 474 -523 122
-83 216 -129 326 -161 116 -33 355 -33 504 0 102 23 535 160 528 168 -2 2 -85
-19 -183 -46 -344 -95 -551 -126 -725 -110 -163 16 -275 63 -434 185 -36 28
-93 70 -128 95 -125 89 -128 94 -129 169 l-1 66 -9 -45 c-5 -25 -7 -50 -5 -57
9 -23 -22 -2 -51 35 -83 105 -127 194 -210 422 -28 80 -52 140 -52 134z"/>
</g>
</svg>
